<svg width="24" height="24" viewBox="0 0 24 24" fill="none" xmlns="http://www.w3.org/2000/svg">
<path d="M4.92896 4.92896C1.02596 8.83196 1.02596 15.168 4.92896 19.072C8.83196 22.974 15.168 22.975 19.072 19.072C22.974 15.169 22.974 8.83296 19.072 4.92896C15.168 1.02596 8.83196 1.02596 4.92896 4.92896ZM16.597 16.597C14.256 18.937 10.452 18.938 8.11096 16.597L9.52496 15.182C11.088 16.745 13.619 16.745 15.182 15.182C16.745 13.62 16.745 11.088 15.182 9.52496C13.598 7.94096 10.982 7.94096 9.41896 9.64596H11.64L11.647 11.647H5.98996V5.98996H7.98396V8.25196C10.359 5.72096 14.25 5.76396 16.597 8.11096C18.938 10.452 18.938 14.255 16.597 16.597Z" fill="#3671E3"/>
</svg>
