<svg fill="none" height="16" viewBox="0 0 16 16" width="16" xmlns="http://www.w3.org/2000/svg"><path d="m10.8266 5.17301c-.78-.78-1.80001-1.17334-2.82668-1.17334v4.00001l-2.82667 2.82662c1.56 1.56 4.09334 1.56 5.66005 0 1.56-1.55996 1.56-4.09329-.0067-5.65329zm-2.82668-3.84c-3.68 0-6.66667 2.98666-6.66667 6.66667 0 3.68002 2.98667 6.66662 6.66667 6.66662 3.67998 0 6.66668-2.9866 6.66668-6.66662 0-3.68001-2.9867-6.66667-6.66668-6.66667zm0 11.99999c-2.94667 0-5.33333-2.3867-5.33333-5.33332 0-2.94667 2.38666-5.33334 5.33333-5.33334 2.94668 0 5.33338 2.38667 5.33338 5.33334 0 2.94662-2.3867 5.33332-5.33338 5.33332z" fill="#3671e3"/></svg>