<svg fill="none" height="16" viewBox="0 0 16 16" width="16" xmlns="http://www.w3.org/2000/svg"><path d="m13.6933 3.48667-.9266-1.12c-.18-.22667-.4534-.36667-.7667-.36667h-8c-.31333 0-.58667.14-.77333.36667l-.92 1.12c-.19334.22666-.30667.52666-.30667.84666v8.33337c0 .7333.6 1.3333 1.33333 1.3333h9.33337c.7333 0 1.3333-.6 1.3333-1.3333v-8.33337c0-.32-.1133-.62-.3067-.84666zm-5.6933 8.18003-3.66667-3.6667h2.33334v-1.33333h2.66666v1.33333h2.33337zm-4.58667-8.33337.54-.66666h7.99997l.6267.66666z" fill="#d42a2a"/></svg>