<svg xmlns="http://www.w3.org/2000/svg" width="159.167" height="54.762" viewBox="-15.887 0 159.167 54.762"><path fill="#FFF" d="M-10-.183h147.892v50.215H-10V-.183z"/><path fill="#8594F8" d="M21.214 17.557a.953.953 0 0 0 .734-.828l1.659-.771 1.238-2.479-3.467 2.25a.976.976 0 0 0-1.263.412.98.98 0 0 0 .108 1.095l-.213 1.025-.219 1.618-1.121 1.104.624 1.172.311.076-.353-1.188.858-.447.85.49-.289 1.174.323-.062.562-1.145-1-.965.436-1.483.222-1.048zm-.455-.554a.425.425 0 0 1 .406-.744c.206.114.28.371.169.577a.423.423 0 0 1-.575.167z"/><path fill="#8594F8" d="M36.404 18.802l-.447-1.879-.394-1.178.005-.006c.305-.557.1-1.254-.456-1.559a1.127 1.127 0 0 0-1.104.024l-2.715-1.247h.907v-1.384h.003V9.399a4.074 4.074 0 0 0-3.34-4.005v-.516a.256.256 0 0 0-.256-.258h-.203V2.936l.432-.431a.212.212 0 0 0 0-.3l-.562-.564a.214.214 0 0 0-.302 0l-.562.565a.208.208 0 0 0 0 .3l.43.431v1.688h-.201a.257.257 0 0 0-.258.257V5.4a4.077 4.077 0 0 0-3.338 4.004v2.15h-.001v1.406h1.677l-.565.969-1.511 3.115a1.412 1.412 0 0 0-1.065.727 1.43 1.43 0 0 0 .566 1.938c.032.018.065.026.1.041l.486 1.6.354.811-1.863.316-.492 1.832.324.34.853-1.684 1.84.168 1.15 1.412-.912 1.782.513.023 1.24-1.576-1.415-2.809-.172-.957-.437-1.437a1.425 1.425 0 0 0 .392-1.747l1.898-2.697.706-1.206.617 1.282 2.123 3.862c-.326.525-.303 1.215.135 1.695.116.129.255.219.399.295l.007 1.5.206 1.877-1.958 1.455.393 1.855.442.154v-1.893l1.713-.679 1.66.679v2.061l.469-.211.39-1.967-2.029-1.49.174-1.748-.008-1.695c.052-.034.11-.051.158-.094a1.43 1.43 0 0 0 .1-2.016c-.203-.225-.467-.342-.741-.405l-1.214-3.117-1.614-1.464 1.442.504 2.859.891c.022.382.216.746.575.941.091.05.188.065.283.089l.341 1.019.764 1.782-1.283 1.168.804 1.455.418.088-.435-1.48 1.183-.59 1.132.59-.434 1.48.442-.088.802-1.453-1.62-1.451zm-12.057-.096a.617.617 0 1 1-.245-.837c.3.164.408.538.245.837zm6.899.611a.614.614 0 0 1 .87.043.615.615 0 1 1-.87-.043zm-3.372-6.335l-.038-.021h.086l-.048.021zm.248-1.69a1.896 1.896 0 1 1 0-3.792 1.896 1.896 0 0 1 0 3.792zm6.885 4.16a.493.493 0 0 1-.672.198.493.493 0 0 1-.198-.673.498.498 0 0 1 .674-.198c.24.133.326.434.196.673z"/><path fill="#8594F8" d="M28.832 9.506a.625.625 0 1 1-.387-1.116 1.14 1.14 0 0 0-.358-.062 1.151 1.151 0 1 0 1.152 1.151c0-.04-.008-.078-.013-.117a.615.615 0 0 1-.394.144zM14.606 29.644h2.992v2.992h-2.992v-2.992zm25.008 0h2.993v2.992h-2.993v-2.992zm-4.288 0h2.993v2.992h-2.993v-2.992zm8.516 0h2.995v2.992h-2.995v-2.992zm-4.228-4.107h2.993v2.994h-2.993v-2.994zm4.228 0h2.995v2.994h-2.995v-2.994zm0-4.101h2.995v2.994h-2.995v-2.994zm-17.237 8.208h2.992v2.992h-2.992v-2.992zm-2.331-2.672l-2.427-1.247 1.247-2.427 2.426 1.246-1.246 2.428zm6.104-.807h2.729v2.729h-2.729v-2.729zm-11.399 3.479h2.992v2.992h-2.992v-2.992z"/><path fill="#201600" d="M55.412 23.787a4.766 4.766 0 0 0-2.358-.6c-1.363 0-2.517.459-3.427 1.367a6.587 6.587 0 0 0-.762 1.024c-.397.66-.6 1.455-.6 2.358-.044 1.326.404 2.467 1.333 3.395.347.348.692.615 1.029.797a4.68 4.68 0 0 0 2.196.6h.396c1.28-.045 2.354-.504 3.189-1.365.328-.322.586-.662.765-.996.398-.686.602-1.479.602-2.355.021-1.349-.43-2.499-1.334-3.428a6.204 6.204 0 0 0-1.029-.797zm-.57 4.222c0 .52-.18.965-.533 1.318a1.583 1.583 0 0 1-1.151.479c-.054 0-.108-.002-.171-.008a1.81 1.81 0 0 1-1.319-.533c-.358-.338-.512-.77-.469-1.32 0-.521.179-.965.532-1.322.314-.312.728-.47 1.224-.47h.1c.52 0 .965.183 1.317.533.332.351.492.798.47 1.323zm10.044-.037c-.043.564-.224 1.012-.536 1.326-.312.311-.732.471-1.254.471-.03 0-.062 0-.099-.002-.479 0-.914-.168-1.286-.498-.354-.396-.523-.854-.508-1.338.023-.094.037-.189.037-.283a.6.6 0 0 1 .062-.245c.062-.27.212-.545.438-.812.336-.336.775-.484 1.351-.469l.078.002V23.19l-.166-.002c-1.305 0-2.427.459-3.331 1.363a4.183 4.183 0 0 0-.8 1 5.128 5.128 0 0 0-.563 1.819 1.53 1.53 0 0 0-.032.291v.246c-.022 1.346.435 2.494 1.357 3.424.159.18.323.328.487.447.157.119.329.234.513.352.688.396 1.479.602 2.362.602 1.362 0 2.516-.459 3.417-1.363.178-.15.328-.314.453-.484.123-.166.24-.34.35-.516.396-.686.599-1.488.599-2.393V27.9h-2.924l-.005.072zm6.306-6.745h-2.933v6.946c0 .598.123 1.18.362 1.727.178.486.502.971.968 1.436.352.352.698.617 1.032.797.66.375 1.396.576 2.194.6h.238V29.8h-.103c-.547-.043-.981-.223-1.293-.531a1.682 1.682 0 0 1-.47-1.096v-2.148h1.864v-2.93h-1.864v-1.867l.005-.001zm9.446 2.56a4.772 4.772 0 0 0-2.359-.6c-1.365 0-2.518.459-3.428 1.367a6.572 6.572 0 0 0-.759 1.024c-.397.662-.602 1.457-.602 2.36-.043 1.324.405 2.465 1.332 3.393.348.35.693.617 1.028.797.663.375 1.4.576 2.197.6h.396c1.279-.045 2.354-.504 3.189-1.365.333-.33.59-.666.767-.996.396-.686.599-1.479.599-2.355.021-1.346-.424-2.499-1.332-3.428a6.24 6.24 0 0 0-1.028-.797zm-.568 4.222c0 .518-.18.963-.531 1.318a1.598 1.598 0 0 1-1.324.471 1.82 1.82 0 0 1-1.321-.533c-.357-.338-.511-.771-.469-1.32 0-.52.181-.965.532-1.322.32-.316.722-.47 1.227-.47h.099c.521 0 .965.183 1.318.533.329.351.486.798.469 1.323zm11.707-3.456c-.902-.906-2.023-1.365-3.328-1.365l-.093.002c-.881 0-1.676.199-2.358.596a3.568 3.568 0 0 0-1 .802c-.928.928-1.385 2.08-1.361 3.423v6.941h2.933v-2.547a4.54 4.54 0 0 0 1.703.328l.149-.002c.902 0 1.699-.203 2.357-.6a4.455 4.455 0 0 0 1.029-.799c.905-.885 1.365-2.023 1.365-3.393 0-.88-.201-1.685-.604-2.397a8.91 8.91 0 0 0-.792-.989zm-1.567 3.394c.021.549-.135.982-.471 1.32-.312.311-.756.49-1.324.531-.539.049-.981-.123-1.317-.504-.312-.289-.491-.727-.53-1.287-.022-.572.132-1.015.466-1.355.336-.332.781-.5 1.328-.5l.09-.002c.479 0 .894.158 1.226.471.354.358.532.802.532 1.326zm10.461-4.16a4.766 4.766 0 0 0-2.358-.6c-1.363 0-2.517.459-3.427 1.367a6.714 6.714 0 0 0-.762 1.024c-.397.664-.6 1.46-.6 2.358-.043 1.326.403 2.465 1.332 3.395a4.5 4.5 0 0 0 1.028.797 4.702 4.702 0 0 0 2.195.6h.399c1.278-.045 2.354-.504 3.189-1.365.328-.328.588-.664.766-.996.396-.686.599-1.479.599-2.355.022-1.346-.425-2.499-1.332-3.428a6.29 6.29 0 0 0-1.029-.797zm-.57 4.222c0 .52-.181.967-.533 1.318a1.581 1.581 0 0 1-1.15.479c-.053 0-.107-.002-.17-.008-.521 0-.965-.182-1.32-.533-.358-.336-.514-.77-.471-1.32 0-.529.176-.959.535-1.322.313-.312.726-.47 1.224-.47h.099c.521 0 .968.183 1.319.533.33.351.488.798.467 1.323zm9.922-7.041v2.545a4.546 4.546 0 0 0-1.855-.322c-.9 0-1.707.199-2.396.601-.161.104-.33.215-.515.348a4.533 4.533 0 0 0-.48.416c-.796.797-1.242 1.748-1.328 2.818a1.628 1.628 0 0 0-.033.31v.295c0 .902.201 1.709.6 2.393.104.17.217.338.349.518.121.166.272.33.446.479.908.906 2.06 1.365 3.425 1.365.858 0 1.652-.201 2.359-.6.181-.111.354-.23.514-.35.166-.121.331-.271.481-.447.928-.928 1.387-2.08 1.365-3.424V20.97l-2.932-.002zm-.467 8.295a1.943 1.943 0 0 1-1.33.504c-.548.043-.978-.111-1.314-.469-.354-.355-.533-.799-.535-1.336a.863.863 0 0 1-.016-.271 4.32 4.32 0 0 1 .049-.286c.062-.268.209-.521.438-.75.312-.312.762-.491 1.324-.532a1.733 1.733 0 0 1 1.316.465c.229.27.391.547.475.817.017.073.035.159.047.239s.019.17.019.27c.011.525-.147.978-.473 1.349z"/><path fill="#8594F8" d="M68.259 17.246h2.995v2.995h-2.995v-2.995z"/><g><path fill="#8594F8" d="M103.095 53.224a1.802 1.802 0 0 0-.11-.104 1.03 1.03 0 0 1-.27.514c-.46.46-1.157.194-1.57-.219-.406-.406-.927-1.128-.37-1.685.126-.126.29-.22.456-.263a14.556 14.556 0 0 0-.981-1.031c.11-.075.201-.137.348-.184l2.728 2.813-.231.159zm-1.512-1.426a.506.506 0 0 0-.511.136c-.392.392.115 1 .417 1.302.276.276.65.541.998.193.162-.162.295-.389.237-.511l-1.141-1.12zm.693-1.591c.481-.481 1.274-.212 1.724.237.385.385.799 1.1.342 1.627-.504.389-1.089.263-1.523-.172-.321-.319-.99-1.245-.543-1.692zm.847 1.489c.255.255.718.337.923.132.306-.306-.086-.963-.33-1.207-.363-.363-.873-.535-1.236-.252-.24.306.424 1.107.643 1.327zm2.283-.92a.372.372 0 0 1-.097.155.755.755 0 0 1-.144.108c-.532-.583-1.275-1.275-1.79-1.876l.194-.122.208.187a.848.848 0 0 1 .23-.625c.445-.445.704-.382 2.357 1.236a.421.421 0 0 1-.072.086.73.73 0 0 1-.23.164 1.14 1.14 0 0 1-.201-.172c-.144-.144-.33-.352-.524-.546-.392-.392-.845-.751-1.132-.47-.236.236-.226.312-.204.499l1.405 1.376zm-.834-3.16c.108-.224.126-.378.015-.489-.025-.025-.062-.046-.098-.068-.021.029-.039.055-.061.076-.101.101-.324-.037-.406-.119-.097-.097-.126-.22-.047-.299.197-.197.586-.004.759.169.209.209.247.515-.047.838l-.115-.108zm2.126-1.185c-.18.209-.331.452-.511.661.589.438 1.153 1.362 1.653.862a1.21 1.21 0 0 0 .215-.309c.087.028.147.054.284.089-.107.23-.27.471-.46.661-.366.366-.956-.136-1.445-.625-.176-.176-.337-.345-.47-.478-.058.071-.248.256-.31.323-.111-.09-.19-.147-.269-.22a.373.373 0 0 0 .086-.07c.065-.065.126-.147.198-.22.025-.025.053-.047.071-.065-.188-.201-.417-.444-.597-.653l.194-.122c.193.18.395.381.589.567.198-.169.377-.355.575-.524l.197.123zm2.422-2.086c-.132.185-.318.371-.448.558.405.405.901.901 1.329 1.286.065.122.051.223-.003.276-.062.062-.176.068-.277.004-.259-.259-.809-.859-1.269-1.319l-.279.26a3.577 3.577 0 0 1-.241-.233c.083-.062.215-.174.299-.234-.101-.122-.208-.229-.31-.331-.478-.478-.672-.715-.31-1.077.158-.158.382-.302.543-.342l.104.147c-.104.097-.216.187-.302.272-.169.169-.244.338.012.594.101.101.157.151.207.201.068.068.13.13.28.286.107-.107.216-.2.31-.294.061-.061.111-.117.161-.183l.194.129zm.195-1.177c.481-.481 1.275-.213 1.725.236.385.385.798 1.101.341 1.628-.503.388-1.089.263-1.523-.172-.321-.319-.989-1.246-.543-1.692zm.848 1.488c.255.255.718.337.922.133.306-.306-.086-.963-.33-1.207-.363-.363-.873-.535-1.236-.252-.239.305.425 1.106.644 1.326zm1.702-3.002c-.205-.09-.346-.051-.446.05-.165.165-.2.417-.236.668-.001.007 1.211 1.219 1.285 1.258.055.104.037.18-.014.23-.082.082-.252.092-.37.017-.503-.567-1.104-1.238-1.584-1.82l.193-.123.244.223c.019-.19.064-.467.219-.621.234-.234.562-.353.799-.115.024.024.054.054.074.09l-.164.143zm1.033-2.034c.047.047.104.104.169.161.262.248.646.604 1.024.981.161.161.345.331.517.503.561.561 1.024 1.175.402 1.797-.18.18-.388.337-.589.495-.083-.067-.129-.086-.176-.133-.021-.021-.051-.051-.071-.093.193-.158.398-.299.553-.453.283-.283.377-.613-.194-1.2-.044.165-.137.33-.263.456-.546.546-1.229.086-1.688-.374s-.7-1.081-.216-1.565c.122-.122.292-.22.514-.27a1.2 1.2 0 0 0-.104-.111l.122-.194zm.183.565c-.122-.058-.349.075-.511.237-.266.266-.115.689.194.999.272.272.905.812 1.301.416.137-.137.193-.338.137-.51l-1.121-1.142zm3.242-.672c-.114.261-.507.896-.715 1.104-.428.428-1.16-.082-1.505-.427-.511-.511-.669-1.085-.083-1.671.237-.237.644-.312.912-.043.435.435-.269 1.188-.531 1.588.302.28.683.575 1.05.208.287-.287.643-.83.687-.88l.185.121zm-1.634-.75c-.172-.107-.29-.147-.409-.028-.28.28-.334.766-.083 1.095a9.16 9.16 0 0 0 .492-1.067zm1.419-1.741c-.18.209-.331.452-.511.661.589.438 1.153 1.362 1.653.862a1.21 1.21 0 0 0 .215-.309c.087.028.147.054.283.09-.106.229-.269.47-.459.66-.367.367-.956-.136-1.445-.625-.176-.176-.337-.345-.47-.478-.058.071-.248.256-.31.323-.111-.09-.19-.147-.27-.219a.387.387 0 0 0 .087-.071c.064-.064.126-.147.198-.22.024-.024.053-.047.07-.064-.187-.202-.416-.445-.596-.654l.194-.122c.193.18.395.381.589.567.197-.168.377-.355.575-.524l.197.123zm2.311-2.312c-.18.209-.331.452-.511.661.589.438 1.153 1.362 1.653.862a1.21 1.21 0 0 0 .215-.309c.087.028.147.054.284.089-.107.23-.27.471-.46.661-.366.366-.956-.136-1.445-.625-.176-.176-.337-.345-.47-.478-.058.071-.247.255-.31.323-.111-.09-.19-.147-.269-.22a.377.377 0 0 0 .087-.071c.064-.064.125-.146.197-.219.025-.025.053-.047.071-.065a26.387 26.387 0 0 1-.597-.653l.194-.122c.193.18.395.381.589.567.198-.169.377-.355.575-.524l.197.123zm.416-1.062c.481-.481 1.274-.212 1.724.237.385.385.799 1.1.342 1.627-.503.388-1.089.263-1.523-.172-.32-.319-.988-1.247-.543-1.692zm.848 1.488c.255.255.718.337.923.132.306-.306-.086-.963-.33-1.207-.363-.363-.873-.535-1.236-.252-.241.306.423 1.107.643 1.327zm1.4-3.111c-.23.094-.486.205-.669.388-.209.209-.266.346-.036.575.485.485 1.244-.625 1.848-.021.283.283.337.79-.025 1.16-.27.27-.637.371-.91.342l-.007-.208c.284-.118.42-.127.639-.346.216-.216.277-.471.095-.653-.432-.432-1.128.683-1.829-.019-.262-.262-.348-.635-.057-.926.23-.23.606-.364.847-.468l.104.176zm1.321-1.299c-.179.208-.331.452-.51.66.589.438 1.153 1.362 1.652.863.079-.079.147-.177.216-.31.086.029.147.054.283.09-.107.23-.27.471-.46.661-.366.366-.955-.137-1.444-.626-.176-.176-.337-.345-.47-.478-.059.072-.248.256-.31.323-.111-.09-.19-.147-.27-.219a.387.387 0 0 0 .087-.071c.064-.064.126-.147.197-.219.025-.025.054-.048.071-.065-.187-.202-.416-.445-.596-.654l.194-.122c.193.18.395.381.589.567.197-.168.377-.355.575-.524l.196.124zm.213-.525c0-.244.126-.521.31-.704.521-.521 1.186 0 1.617.432.276.276.521.579.793.852.058.101.048.177.001.224-.078.078-.27.066-.373-.037-.012-.012-.025-.025-.033-.039-.004.262-.09.514-.251.675a.655.655 0 0 1-.924-.004c-.435-.435-.452-1.249-.021-1.681.028-.028.06-.054.097-.083-.213-.184-.486-.334-.734-.086-.122.122-.197.32-.233.563l-.249-.112zm1.714.097c-.1-.1-.204-.196-.301-.287l-.029.029c-.312.32-.388.927-.028 1.286a.328.328 0 0 0 .478.011c.151-.151.208-.446.248-.658-.119-.124-.242-.255-.368-.381zm1.024-2.135c-.204-.091-.345-.052-.445.049-.166.166-.201.418-.237.669-.001.007 1.211 1.219 1.286 1.257.054.104.036.181-.014.23-.083.083-.253.093-.371.018-.503-.567-1.103-1.239-1.584-1.82l.193-.123.244.223c.019-.19.065-.468.22-.622.233-.233.561-.352.798-.114.024.024.054.054.075.089l-.165.144zm2.11-2.499c-.179.208-.331.452-.51.66.589.438 1.153 1.362 1.652.863.079-.079.147-.177.216-.31.086.029.147.054.283.09-.107.23-.27.471-.46.661-.366.366-.955-.137-1.444-.626-.176-.176-.337-.345-.47-.478-.059.072-.248.256-.31.323-.111-.09-.19-.147-.27-.219a.387.387 0 0 0 .087-.071c.064-.064.126-.147.197-.219.025-.025.054-.048.071-.065-.187-.202-.416-.445-.596-.654l.194-.122c.193.18.395.381.589.567.197-.168.377-.355.575-.524l.196.124zm-.429-1.454c.284.247.644.614.924.865a.87.87 0 0 1 .251-.653c.302-.302.816-.363 1.208.028l1.153 1.153a.43.43 0 0 1-.098.141.898.898 0 0 1-.154.125c-.058-.058-.111-.119-.168-.176-.307-.307-.638-.593-1.055-1.01-.275-.197-.499-.147-.646 0a.736.736 0 0 0-.186.625c.441.398.897.884 1.332 1.283a1.12 1.12 0 0 1-.129.158.623.623 0 0 1-.169.126c-.165-.181-.348-.363-.535-.551-.636-.636-1.354-1.312-1.955-1.977l.227-.137zm5.1-.51c-.113.26-.506.895-.714 1.103-.428.428-1.16-.082-1.505-.427-.511-.511-.669-1.085-.083-1.671.237-.237.644-.312.912-.043.435.435-.27 1.189-.531 1.588.302.28.683.575 1.049.209.288-.288.643-.83.687-.88l.185.121zm-1.634-.751c-.172-.107-.291-.146-.409-.028-.28.28-.334.766-.084 1.096.148-.27.389-.77.493-1.068zm1.396-2.256c.036.036.072.072.111.104.051-.222.147-.392.27-.514.46-.46 1.157-.193 1.57.22.406.406.927 1.127.369 1.685a1.041 1.041 0 0 1-.456.263c.31.294.622.593.938.888.053.104.036.179-.015.229-.083.083-.252.094-.37.019l-2.647-2.734.23-.16zm1.512 1.426a.512.512 0 0 0 .511-.138c.392-.392-.115-.998-.417-1.3-.277-.277-.65-.543-.999-.194-.162.162-.295.389-.237.511l1.142 1.121zm1.311-3.322c-.205-.09-.346-.051-.446.05-.165.165-.2.418-.236.669-.001.006 1.211 1.218 1.285 1.257.055.104.037.181-.014.23-.082.083-.252.093-.37.018-.503-.567-1.104-1.239-1.584-1.821l.193-.123.244.223c.019-.189.064-.467.219-.621.233-.233.562-.352.799-.114.024.024.054.054.074.089l-.164.143zm.361-1.396c.481-.481 1.275-.213 1.725.236.385.385.798 1.101.341 1.628-.503.388-1.088.263-1.522-.172-.32-.319-.989-1.247-.544-1.692zm.849 1.487c.255.255.718.337.922.133.306-.306-.086-.963-.33-1.207-.363-.363-.873-.535-1.236-.252-.24.306.424 1.106.644 1.326zm.17-3.117c.097.097.122.222.036.309-.137.136-.349.075-.48-.057-.098-.098-.127-.22-.048-.299.132-.133.359-.086.492.047zm1.972 3.424c.345-.539-.136-1.07-.563-1.498-.291-.291-.59-.575-1.19-1.168-.097-.118-.093-.216-.039-.27.068-.068.215-.072.339.037.193.193.394.387.609.603.036.036.108.101.205.197 1.333 1.333 1.322 1.725.945 2.103a.655.655 0 0 1-.177.125l-.129-.129zm1.75-3.18c-.114.26-.507.895-.715 1.104-.428.427-1.16-.083-1.505-.428-.511-.511-.669-1.085-.083-1.671.237-.237.644-.312.912-.043.435.435-.27 1.189-.531 1.588.302.28.683.575 1.049.209.288-.287.644-.83.687-.88l.186.121zm-1.635-.751c-.172-.107-.291-.146-.409-.028-.28.28-.334.766-.083 1.096.147-.27.387-.77.492-1.068zm1.54-1.956a2.417 2.417 0 0 0-.272.229c-.514.515-.184 1.168.255 1.606.262.262.601.5.927.173.108-.108.215-.26.33-.453a.511.511 0 0 1 .091-.147c.058-.058.129-.043.298.097-.111.22-.277.471-.475.668-.535.536-.924.385-1.448-.14-.604-.604-.959-1.246-.315-1.89.151-.15.326-.277.479-.312l.13.169zm1.282-1.188c-.18.208-.331.452-.511.66.589.438 1.153 1.362 1.653.863.079-.079.146-.177.215-.31.087.029.147.054.284.09-.107.23-.27.471-.46.661-.367.366-.956-.137-1.445-.626-.176-.176-.337-.345-.47-.478-.058.072-.248.256-.31.323-.111-.09-.19-.147-.27-.219a.387.387 0 0 0 .087-.071c.065-.064.126-.147.198-.22.025-.024.053-.047.071-.064-.188-.202-.417-.445-.597-.654l.194-.122c.193.18.395.381.589.567.198-.168.377-.355.575-.524l.197.124z"/></g></svg>