<svg xmlns="http://www.w3.org/2000/svg" width="165.167" height="61.596" viewBox="-18.887 0 165.167 61.596"><path fill="#FFF" d="M-19-.183h165.559v61.715H-19V-.183z"/><path fill="#8594F8" d="M21.214 17.557a.953.953 0 0 0 .734-.828l1.659-.771 1.238-2.479-3.467 2.25a.976.976 0 0 0-1.263.412.98.98 0 0 0 .108 1.095l-.213 1.025-.219 1.618-1.121 1.104.624 1.172.311.076-.353-1.188.858-.447.85.49-.289 1.174.323-.062.562-1.145-1-.965.436-1.483.222-1.048zm-.455-.554a.425.425 0 0 1 .406-.744c.206.114.28.371.169.577a.423.423 0 0 1-.575.167z"/><path fill="#8594F8" d="M36.404 18.802l-.447-1.879-.394-1.178.005-.006c.305-.557.1-1.254-.456-1.559a1.127 1.127 0 0 0-1.104.024l-2.715-1.247h.907v-1.384h.003V9.399a4.074 4.074 0 0 0-3.34-4.005v-.516a.256.256 0 0 0-.256-.258h-.203V2.936l.432-.431a.212.212 0 0 0 0-.3l-.562-.564a.214.214 0 0 0-.302 0l-.562.565a.208.208 0 0 0 0 .3l.43.431v1.688h-.201a.257.257 0 0 0-.258.257V5.4a4.077 4.077 0 0 0-3.338 4.004v2.15h-.001v1.406h1.677l-.565.969-1.511 3.115a1.412 1.412 0 0 0-1.065.727 1.43 1.43 0 0 0 .566 1.938c.032.018.065.026.1.041l.486 1.6.354.811-1.863.316-.492 1.832.324.34.853-1.684 1.84.168 1.15 1.412-.912 1.782.513.023 1.24-1.576-1.415-2.809-.172-.957-.437-1.437a1.425 1.425 0 0 0 .392-1.747l1.898-2.697.706-1.206.617 1.282 2.123 3.862c-.326.525-.303 1.215.135 1.695.116.129.255.219.399.295l.007 1.5.206 1.877-1.958 1.455.393 1.855.442.154v-1.893l1.713-.679 1.66.679v2.061l.469-.211.39-1.967-2.029-1.49.174-1.748-.008-1.695c.052-.034.11-.051.158-.094a1.43 1.43 0 0 0 .1-2.016c-.203-.225-.467-.342-.741-.405l-1.214-3.117-1.614-1.464 1.442.504 2.859.891c.022.382.216.746.575.941.091.05.188.065.283.089l.341 1.019.764 1.782-1.283 1.168.804 1.455.418.088-.435-1.48 1.183-.59 1.132.59-.434 1.48.442-.088.802-1.453-1.62-1.451zm-12.057-.096a.617.617 0 1 1-.245-.837c.3.164.408.538.245.837zm6.899.611a.614.614 0 0 1 .87.043.615.615 0 1 1-.87-.043zm-3.372-6.335l-.038-.021h.086l-.048.021zm.248-1.69a1.896 1.896 0 1 1 0-3.792 1.896 1.896 0 0 1 0 3.792zm6.885 4.16a.493.493 0 0 1-.672.198.493.493 0 0 1-.198-.673.498.498 0 0 1 .674-.198c.24.133.326.434.196.673z"/><path fill="#8594F8" d="M28.832 9.506a.625.625 0 1 1-.387-1.116 1.14 1.14 0 0 0-.358-.062 1.151 1.151 0 1 0 1.152 1.151c0-.04-.008-.078-.013-.117a.615.615 0 0 1-.394.144zM14.606 29.644h2.992v2.992h-2.992v-2.992zm25.008 0h2.993v2.992h-2.993v-2.992zm-4.288 0h2.993v2.992h-2.993v-2.992zm8.516 0h2.995v2.992h-2.995v-2.992zm-4.228-4.107h2.993v2.994h-2.993v-2.994zm4.228 0h2.995v2.994h-2.995v-2.994zm0-4.101h2.995v2.994h-2.995v-2.994zm-17.237 8.208h2.992v2.992h-2.992v-2.992zm-2.331-2.672l-2.427-1.247 1.247-2.427 2.426 1.246-1.246 2.428zm6.104-.807h2.729v2.729h-2.729v-2.729zm-11.399 3.479h2.992v2.992h-2.992v-2.992z"/><path fill="#201600" d="M55.412 23.787a4.766 4.766 0 0 0-2.358-.6c-1.363 0-2.517.459-3.427 1.367a6.587 6.587 0 0 0-.762 1.024c-.397.66-.6 1.455-.6 2.358-.044 1.326.404 2.467 1.333 3.395.347.348.692.615 1.029.797a4.68 4.68 0 0 0 2.196.6h.396c1.28-.045 2.354-.504 3.189-1.365.328-.322.586-.662.765-.996.398-.686.602-1.479.602-2.355.021-1.349-.43-2.499-1.334-3.428a6.204 6.204 0 0 0-1.029-.797zm-.57 4.222c0 .52-.18.965-.533 1.318a1.583 1.583 0 0 1-1.151.479c-.054 0-.108-.002-.171-.008a1.81 1.81 0 0 1-1.319-.533c-.358-.338-.512-.77-.469-1.32 0-.521.179-.965.532-1.322.314-.312.728-.47 1.224-.47h.1c.52 0 .965.183 1.317.533.332.351.492.798.47 1.323zm10.044-.037c-.043.564-.224 1.012-.536 1.326-.312.311-.732.471-1.254.471-.03 0-.062 0-.099-.002-.479 0-.914-.168-1.286-.498-.354-.396-.523-.854-.508-1.338.023-.094.037-.189.037-.283a.6.6 0 0 1 .062-.245c.062-.27.212-.545.438-.812.336-.336.775-.484 1.351-.469l.078.002V23.19l-.166-.002c-1.305 0-2.427.459-3.331 1.363a4.183 4.183 0 0 0-.8 1 5.128 5.128 0 0 0-.563 1.819 1.53 1.53 0 0 0-.032.291v.246c-.022 1.346.435 2.494 1.357 3.424.159.18.323.328.487.447.157.119.329.234.513.352.688.396 1.479.602 2.362.602 1.362 0 2.516-.459 3.417-1.363.178-.15.328-.314.453-.484.123-.166.24-.34.35-.516.396-.686.599-1.488.599-2.393V27.9h-2.924l-.005.072zm6.306-6.745h-2.933v6.946c0 .598.123 1.18.362 1.727.178.486.502.971.968 1.436.352.352.698.617 1.032.797.66.375 1.396.576 2.194.6h.238V29.8h-.103c-.547-.043-.981-.223-1.293-.531a1.682 1.682 0 0 1-.47-1.096v-2.148h1.864v-2.93h-1.864v-1.867l.005-.001zm9.446 2.56a4.772 4.772 0 0 0-2.359-.6c-1.365 0-2.518.459-3.428 1.367a6.572 6.572 0 0 0-.759 1.024c-.397.662-.602 1.457-.602 2.36-.043 1.324.405 2.465 1.332 3.393.348.35.693.617 1.028.797.663.375 1.4.576 2.197.6h.396c1.279-.045 2.354-.504 3.189-1.365.333-.33.59-.666.767-.996.396-.686.599-1.479.599-2.355.021-1.346-.424-2.499-1.332-3.428a6.24 6.24 0 0 0-1.028-.797zm-.568 4.222c0 .518-.18.963-.531 1.318a1.598 1.598 0 0 1-1.324.471 1.82 1.82 0 0 1-1.321-.533c-.357-.338-.511-.771-.469-1.32 0-.52.181-.965.532-1.322.32-.316.722-.47 1.227-.47h.099c.521 0 .965.183 1.318.533.329.351.486.798.469 1.323zm11.707-3.456c-.902-.906-2.023-1.365-3.328-1.365l-.093.002c-.881 0-1.676.199-2.358.596a3.568 3.568 0 0 0-1 .802c-.928.928-1.385 2.08-1.361 3.423v6.941h2.933v-2.547a4.54 4.54 0 0 0 1.703.328l.149-.002c.902 0 1.699-.203 2.357-.6a4.455 4.455 0 0 0 1.029-.799c.905-.885 1.365-2.023 1.365-3.393 0-.88-.201-1.685-.604-2.397a8.91 8.91 0 0 0-.792-.989zm-1.567 3.394c.021.549-.135.982-.471 1.32-.312.311-.756.49-1.324.531-.539.049-.981-.123-1.317-.504-.312-.289-.491-.727-.53-1.287-.022-.572.132-1.015.466-1.355.336-.332.781-.5 1.328-.5l.09-.002c.479 0 .894.158 1.226.471.354.358.532.802.532 1.326zm10.461-4.16a4.766 4.766 0 0 0-2.358-.6c-1.363 0-2.517.459-3.427 1.367a6.714 6.714 0 0 0-.762 1.024c-.397.664-.6 1.46-.6 2.358-.043 1.326.403 2.465 1.332 3.395a4.5 4.5 0 0 0 1.028.797 4.702 4.702 0 0 0 2.195.6h.399c1.278-.045 2.354-.504 3.189-1.365.328-.328.588-.664.766-.996.396-.686.599-1.479.599-2.355.022-1.346-.425-2.499-1.332-3.428a6.29 6.29 0 0 0-1.029-.797zm-.57 4.222c0 .52-.181.967-.533 1.318a1.581 1.581 0 0 1-1.15.479c-.053 0-.107-.002-.17-.008-.521 0-.965-.182-1.32-.533-.358-.336-.514-.77-.471-1.32 0-.529.176-.959.535-1.322.313-.312.726-.47 1.224-.47h.099c.521 0 .968.183 1.319.533.33.351.488.798.467 1.323zm9.922-7.041v2.545a4.546 4.546 0 0 0-1.855-.322c-.9 0-1.707.199-2.396.601-.161.104-.33.215-.515.348a4.533 4.533 0 0 0-.48.416c-.796.797-1.242 1.748-1.328 2.818a1.628 1.628 0 0 0-.033.31v.295c0 .902.201 1.709.6 2.393.104.17.217.338.349.518.121.166.272.33.446.479.908.906 2.06 1.365 3.425 1.365.858 0 1.652-.201 2.359-.6.181-.111.354-.23.514-.35.166-.121.331-.271.481-.447.928-.928 1.387-2.08 1.365-3.424V20.97l-2.932-.002zm-.467 8.295a1.943 1.943 0 0 1-1.33.504c-.548.043-.978-.111-1.314-.469-.354-.355-.533-.799-.535-1.336a.863.863 0 0 1-.016-.271 4.32 4.32 0 0 1 .049-.286c.062-.268.209-.521.438-.75.312-.312.762-.491 1.324-.532a1.733 1.733 0 0 1 1.316.465c.229.27.391.547.475.817.017.073.035.159.047.239s.019.17.019.27c.011.525-.147.978-.473 1.349z"/><path fill="#8594F8" d="M68.259 17.246h2.995v2.995h-2.995v-2.995z"/><g><path d="M111.607 52.267c-.052-.052-.104-.104-.161-.151a1.499 1.499 0 0 1-.392.745c-.667.667-1.678.281-2.277-.318-.589-.589-1.345-1.636-.537-2.443a1.48 1.48 0 0 1 .663-.38 20.64 20.64 0 0 0-1.048-1.132c-.13-.13-.256-.256-.376-.364.162-.109.292-.198.506-.266l3.956 4.081-.334.228zm-2.194-2.069c-.25-.084-.543 0-.74.197-.568.568.166 1.449.604 1.887.401.401.943.787 1.449.281.234-.234.427-.563.344-.74l-1.657-1.625zm1.005-2.309c.698-.698 1.851-.308 2.502.344.558.558 1.156 1.596.494 2.361-.729.562-1.579.38-2.209-.25-.464-.464-1.433-1.809-.787-2.455zm1.231 2.158c.37.37 1.042.489 1.339.192.443-.443-.125-1.396-.479-1.751-.526-.526-1.267-.776-1.793-.365-.351.444.614 1.606.933 1.924zm3.314-1.334a.544.544 0 0 1-.142.224 1.032 1.032 0 0 1-.209.156c-.77-.844-1.85-1.85-2.595-2.72l.281-.178.303.271c-.01-.334.099-.673.333-.907.646-.646 1.022-.552 3.419 1.792a.51.51 0 0 1-.104.127 1.098 1.098 0 0 1-.334.238 1.715 1.715 0 0 1-.291-.25c-.209-.209-.479-.511-.761-.792-.568-.568-1.226-1.089-1.642-.683-.345.345-.33.453-.298.724l2.04 1.998zm-1.209-4.586c.155-.323.182-.547.021-.708a.76.76 0 0 0-.142-.101.85.85 0 0 1-.088.109c-.146.146-.47-.052-.59-.172-.141-.141-.182-.318-.067-.433.287-.287.851-.005 1.101.245.302.302.359.746-.068 1.215l-.167-.155zm3.084-1.721c-.26.303-.479.657-.739.96.854.636 1.672 1.975 2.396 1.25a1.73 1.73 0 0 0 .313-.448c.124.042.213.078.412.131a3.52 3.52 0 0 1-.668.959c-.531.531-1.386-.198-2.095-.907-.255-.255-.49-.5-.684-.693-.083.104-.358.37-.447.469-.161-.13-.275-.213-.392-.317a.553.553 0 0 0 .126-.104c.094-.094.182-.213.286-.317.037-.037.078-.068.104-.095-.271-.291-.604-.646-.865-.947l.281-.178c.282.261.574.553.855.824.286-.245.546-.517.834-.762l.283.175zm3.518-3.027c-.192.267-.463.537-.651.808.589.589 1.309 1.309 1.929 1.866.094.178.073.323-.005.401-.089.089-.255.099-.401.005-.375-.375-1.174-1.246-1.841-1.913l-.405.376c-.058-.048-.109-.1-.349-.339.118-.089.312-.25.433-.339-.146-.178-.303-.334-.448-.479-.693-.693-.976-1.038-.449-1.564.229-.229.553-.438.787-.494l.151.214c-.151.14-.312.271-.438.396-.245.245-.354.489.016.859.146.146.229.219.302.292.099.099.188.188.407.417.156-.156.312-.292.447-.428.089-.089.162-.172.234-.266l.281.188zm.281-1.709c.699-.699 1.851-.308 2.502.344.558.558 1.157 1.595.495 2.36-.729.563-1.579.38-2.209-.25-.464-.464-1.434-1.808-.788-2.454zm1.231 2.157c.37.37 1.041.49 1.339.192.442-.442-.125-1.396-.479-1.751-.526-.526-1.267-.776-1.793-.365-.35.444.615 1.606.933 1.924zm2.47-4.356c-.297-.131-.501-.073-.646.072-.24.24-.292.604-.344.971 0 .01 1.756 1.766 1.865 1.822.078.152.053.262-.021.335-.12.12-.365.135-.537.025-.729-.823-1.6-1.797-2.298-2.642l.281-.178.354.323c.026-.276.094-.678.317-.901.339-.339.813-.511 1.157-.167a.66.66 0 0 1 .109.131l-.237.209zm1.501-2.95c.067.067.151.151.244.234.381.359.938.876 1.486 1.424.233.233.5.479.75.729.813.813 1.484 1.705.583 2.606-.261.261-.562.49-.854.72-.119-.1-.188-.126-.256-.193a.5.5 0 0 1-.104-.136c.282-.229.579-.433.804-.657.411-.411.547-.891-.281-1.74a1.498 1.498 0 0 1-.381.662c-.792.792-1.782.126-2.449-.541-.668-.668-1.017-1.569-.312-2.273.177-.177.423-.317.745-.39-.047-.059-.099-.11-.151-.163l.176-.282zm.266.818c-.178-.084-.506.109-.74.344-.386.386-.167 1.001.281 1.449.396.396 1.312 1.178 1.886.604.198-.198.282-.489.199-.74l-1.626-1.657zm4.706-.974c-.167.374-.736 1.297-1.038 1.599-.62.62-1.684-.119-2.184-.619-.74-.74-.969-1.574-.119-2.424.344-.344.934-.453 1.324-.062.63.63-.392 1.726-.772 2.304.438.406.99.834 1.522.302.417-.417.934-1.203.995-1.276l.272.176zm-2.371-1.089c-.25-.156-.423-.214-.595-.042-.406.406-.485 1.11-.119 1.59.213-.391.562-1.116.714-1.548zm2.057-2.529c-.26.303-.479.657-.739.96.854.636 1.672 1.975 2.396 1.25.114-.114.214-.255.312-.448.125.042.214.078.412.132a3.505 3.505 0 0 1-.667.958c-.531.531-1.386-.198-2.095-.907-.255-.255-.49-.5-.684-.693-.083.104-.359.37-.448.47-.161-.131-.275-.213-.391-.318a.524.524 0 0 0 .125-.104c.094-.094.183-.214.287-.318.036-.037.078-.068.104-.094-.271-.292-.604-.646-.864-.948l.281-.178c.282.261.574.554.855.824.286-.245.546-.517.833-.761l.283.175zm3.356-3.356c-.26.303-.479.657-.739.96.855.636 1.673 1.974 2.397 1.25a1.7 1.7 0 0 0 .312-.447c.125.041.213.078.412.131a3.57 3.57 0 0 1-.667.959c-.532.531-1.387-.199-2.096-.908-.255-.255-.489-.5-.683-.693-.083.104-.359.371-.448.469-.161-.13-.275-.213-.391-.318a.571.571 0 0 0 .125-.104c.094-.094.183-.214.287-.318.036-.037.077-.068.104-.094-.271-.292-.604-.646-.864-.948l.28-.178c.282.261.574.553.855.824.287-.245.547-.517.834-.761l.282.176zm.605-1.542c.698-.699 1.85-.308 2.501.344.558.558 1.157 1.595.495 2.361-.729.563-1.579.38-2.209-.25-.464-.464-1.433-1.809-.787-2.455zm1.231 2.158c.37.37 1.042.49 1.339.192.442-.443-.125-1.396-.479-1.751-.526-.526-1.267-.776-1.793-.365-.35.444.614 1.606.933 1.924zm-21.294 31.319c-.334.135-.704.298-.97.563-.302.302-.386.499-.052.833.703.703 1.803-.906 2.678-.031.413.413.49 1.146-.035 1.684-.392.392-.922.537-1.318.496l-.011-.304c.411-.171.609-.182.928-.5.312-.312.401-.683.136-.948-.626-.626-1.637.99-2.653-.026-.381-.381-.506-.922-.083-1.345.333-.333.881-.525 1.229-.677l.151.255zm1.918-1.886c-.261.304-.479.657-.74.959.854.636 1.673 1.976 2.397 1.251.114-.114.214-.255.312-.448.126.042.215.078.412.131a3.47 3.47 0 0 1-.666.959c-.531.531-1.388-.198-2.097-.907-.255-.255-.489-.501-.682-.693-.083.104-.359.371-.448.47-.162-.131-.276-.214-.391-.318a.596.596 0 0 0 .124-.104c.094-.094.184-.213.288-.317.036-.036.077-.067.104-.094-.271-.292-.604-.646-.865-.949l.281-.178c.281.262.573.554.855.824.287-.244.547-.516.833-.761l.283.175zm.312-.76c0-.355.182-.756.448-1.022.755-.755 1.72.001 2.345.626.401.401.755.839 1.151 1.235.084.146.068.256.001.323-.114.114-.392.099-.542-.052-.017-.017-.037-.037-.047-.059-.006.381-.132.745-.366.979a.95.95 0 0 1-1.339-.005c-.63-.63-.657-1.813-.031-2.439.041-.041.089-.077.141-.119-.307-.266-.703-.484-1.062-.125-.178.178-.287.463-.339.817l-.36-.159zm2.487.141a14.973 14.973 0 0 0-.438-.417l-.042.042c-.453.463-.562 1.344-.041 1.865.224.224.516.193.693.016.219-.219.302-.646.359-.953-.172-.184-.35-.372-.531-.553zm1.484-3.102c-.298-.13-.5-.072-.646.073-.24.24-.292.604-.345.97 0 .01 1.756 1.766 1.866 1.823.077.151.052.261-.021.334-.12.12-.364.136-.536.026-.73-.824-1.601-1.798-2.299-2.643l.281-.178.355.324c.026-.276.094-.678.317-.901.339-.339.812-.512 1.157-.167a.665.665 0 0 1 .109.131l-.238.208zm3.064-3.627c-.26.303-.479.657-.74.959.854.636 1.673 1.976 2.397 1.251.114-.114.214-.255.312-.449.125.043.214.079.412.131a3.484 3.484 0 0 1-.667.96c-.531.531-1.387-.199-2.096-.908-.255-.255-.49-.5-.683-.692-.083.104-.358.37-.447.469-.162-.131-.276-.214-.392-.317a.607.607 0 0 0 .125-.105c.094-.094.183-.212.287-.316.036-.036.078-.068.104-.094-.271-.292-.604-.646-.865-.949l.281-.178c.282.261.574.553.855.824.287-.244.547-.516.833-.761l.284.175zm-.62-2.11c.412.359.933.892 1.34 1.256-.011-.386.13-.714.364-.948.438-.438 1.183-.526 1.751.042l1.673 1.673a.617.617 0 0 1-.141.203 1.378 1.378 0 0 1-.225.182c-.083-.083-.161-.171-.245-.255-.442-.442-.922-.859-1.526-1.464-.401-.288-.725-.215-.938-.001-.234.234-.333.636-.271.907.641.578 1.303 1.281 1.933 1.86a1.71 1.71 0 0 1-.187.229.952.952 0 0 1-.245.183c-.239-.261-.506-.527-.776-.798-.923-.923-1.965-1.902-2.835-2.866l.328-.203zm7.401-.741c-.168.375-.735 1.298-1.037 1.6-.62.62-1.684-.119-2.184-.619-.74-.74-.969-1.574-.12-2.423.345-.345.933-.454 1.323-.063.631.631-.391 1.725-.771 2.304.438.406.99.834 1.521.303.417-.417.933-1.204.995-1.278l.273.176zm-2.372-1.088c-.25-.156-.421-.214-.594-.041-.406.406-.484 1.109-.12 1.589.214-.392.562-1.116.714-1.548zm2.027-3.278c.052.052.104.104.162.15.073-.323.213-.568.39-.745.668-.668 1.679-.282 2.278.317.589.589 1.345 1.638.537 2.445a1.485 1.485 0 0 1-.662.379c.448.429.901.86 1.36 1.288.078.15.052.261-.021.334-.119.119-.365.135-.536.026l-3.841-3.966.333-.228zm2.194 2.068c.251.085.542.001.74-.197.567-.567-.167-1.448-.604-1.886-.401-.401-.943-.787-1.448-.282-.235.235-.428.562-.344.74l1.656 1.625zm1.902-4.82c-.297-.131-.499-.073-.646.073-.239.239-.292.604-.344.969 0 .01 1.756 1.766 1.865 1.824.078.15.052.261-.021.333-.12.12-.364.136-.536.026-.73-.824-1.601-1.798-2.299-2.643l.28-.177.356.323c.025-.275.093-.677.317-.901.339-.339.812-.512 1.157-.167a.665.665 0 0 1 .109.131l-.238.209zm.527-2.027c.698-.698 1.851-.308 2.501.343.559.559 1.157 1.597.495 2.362-.729.562-1.579.38-2.21-.251-.463-.463-1.432-1.808-.786-2.454zm1.229 2.157c.37.37 1.042.489 1.339.192.443-.443-.125-1.396-.479-1.751-.525-.525-1.266-.775-1.792-.364-.35.444.615 1.606.932 1.923zm.25-4.523c.141.141.177.323.052.448-.198.198-.506.109-.698-.083-.141-.141-.182-.318-.067-.433.193-.193.52-.126.713.068zm2.862 4.967c.5-.781-.197-1.553-.818-2.174-.422-.422-.854-.833-1.725-1.693-.141-.172-.136-.312-.057-.391.099-.099.312-.104.489.052.282.282.573.563.886.876.052.052.155.146.297.287 1.934 1.934 1.917 2.501 1.37 3.048a.96.96 0 0 1-.255.183l-.187-.188zm2.538-4.613c-.168.375-.735 1.298-1.037 1.6-.62.62-1.684-.119-2.184-.619-.74-.74-.969-1.574-.119-2.424.344-.344.932-.453 1.322-.062.631.631-.391 1.725-.771 2.304.438.406.99.834 1.521.303.417-.417.933-1.204.995-1.278l.273.176zm-2.372-1.089c-.25-.156-.421-.214-.593-.042-.407.407-.485 1.11-.121 1.59.214-.391.563-1.116.714-1.548zm2.236-2.839a3.336 3.336 0 0 0-.396.334c-.745.744-.267 1.693.369 2.329.381.381.87.724 1.345.249.156-.156.312-.375.479-.655a.711.711 0 0 1 .131-.215c.083-.083.188-.062.433.142a3.951 3.951 0 0 1-.689.969c-.776.776-1.339.558-2.1-.203-.875-.875-1.391-1.809-.458-2.741.219-.219.475-.4.692-.454l.194.245zm1.861-1.726c-.26.304-.479.657-.74.959.854.636 1.673 1.976 2.397 1.251.114-.115.214-.255.312-.449.125.043.214.079.412.131a3.484 3.484 0 0 1-.667.96c-.531.531-1.387-.199-2.096-.908-.255-.255-.49-.5-.683-.692-.083.104-.358.371-.447.469-.162-.131-.276-.213-.392-.318.047-.025.083-.062.125-.104.094-.094.183-.213.287-.317.037-.036.078-.068.104-.095-.271-.291-.604-.646-.866-.949l.281-.177c.282.261.574.554.855.824.287-.244.547-.517.834-.761l.284.176z"/></g></svg>