<svg xmlns="http://www.w3.org/2000/svg" width="139" height="48.096" viewBox="-5.553 0 139 48.096"><path fill="#FFF" d="M-5.5-.183h138.559v48.549H-5.5V-.183z"/><path fill="#8594F8" d="M21.214 17.557a.953.953 0 0 0 .734-.828l1.659-.771 1.238-2.479-3.467 2.25a.976.976 0 0 0-1.263.412.98.98 0 0 0 .108 1.095l-.213 1.025-.219 1.618-1.121 1.104.624 1.172.311.076-.353-1.188.858-.447.85.49-.289 1.174.323-.062.562-1.145-1-.965.436-1.483.222-1.048zm-.455-.554a.425.425 0 0 1 .406-.744c.206.114.28.371.169.577a.423.423 0 0 1-.575.167z"/><path fill="#8594F8" d="M36.404 18.802l-.447-1.879-.394-1.178.005-.006c.305-.557.1-1.254-.456-1.559a1.127 1.127 0 0 0-1.104.024l-2.715-1.247h.907v-1.384h.003V9.399a4.074 4.074 0 0 0-3.34-4.005v-.516a.256.256 0 0 0-.256-.258h-.203V2.936l.432-.431a.212.212 0 0 0 0-.3l-.562-.564a.214.214 0 0 0-.302 0l-.562.565a.208.208 0 0 0 0 .3l.43.431v1.688h-.201a.257.257 0 0 0-.258.257V5.4a4.077 4.077 0 0 0-3.338 4.004v2.15h-.001v1.406h1.677l-.565.969-1.511 3.115a1.412 1.412 0 0 0-1.065.727 1.43 1.43 0 0 0 .566 1.938c.032.018.065.026.1.041l.486 1.6.354.811-1.863.316-.492 1.832.324.34.853-1.684 1.84.168 1.15 1.412-.912 1.782.513.023 1.24-1.576-1.415-2.809-.172-.957-.437-1.437a1.425 1.425 0 0 0 .392-1.747l1.898-2.697.706-1.206.617 1.282 2.123 3.862c-.326.525-.303 1.215.135 1.695.116.129.255.219.399.295l.007 1.5.206 1.877-1.958 1.455.393 1.855.442.154v-1.893l1.713-.679 1.66.679v2.061l.469-.211.39-1.967-2.029-1.49.174-1.748-.008-1.695c.052-.034.11-.051.158-.094a1.43 1.43 0 0 0 .1-2.016c-.203-.225-.467-.342-.741-.405l-1.214-3.117-1.614-1.464 1.442.504 2.859.891c.022.382.216.746.575.941.091.05.188.065.283.089l.341 1.019.764 1.782-1.283 1.168.804 1.455.418.088-.435-1.48 1.183-.59 1.132.59-.434 1.48.442-.088.802-1.453-1.62-1.451zm-12.057-.096a.617.617 0 1 1-.245-.837c.3.164.408.538.245.837zm6.899.611a.614.614 0 0 1 .87.043.615.615 0 1 1-.87-.043zm-3.372-6.335l-.038-.021h.086l-.048.021zm.248-1.69a1.896 1.896 0 1 1 0-3.792 1.896 1.896 0 0 1 0 3.792zm6.885 4.16a.493.493 0 0 1-.672.198.493.493 0 0 1-.198-.673.498.498 0 0 1 .674-.198c.24.133.326.434.196.673z"/><path fill="#8594F8" d="M28.832 9.506a.625.625 0 1 1-.387-1.116 1.14 1.14 0 0 0-.358-.062 1.151 1.151 0 1 0 1.152 1.151c0-.04-.008-.078-.013-.117a.615.615 0 0 1-.394.144zM14.606 29.644h2.992v2.992h-2.992v-2.992zm25.008 0h2.993v2.992h-2.993v-2.992zm-4.288 0h2.993v2.992h-2.993v-2.992zm8.516 0h2.995v2.992h-2.995v-2.992zm-4.228-4.107h2.993v2.994h-2.993v-2.994zm4.228 0h2.995v2.994h-2.995v-2.994zm0-4.101h2.995v2.994h-2.995v-2.994zm-17.237 8.208h2.992v2.992h-2.992v-2.992zm-2.331-2.672l-2.427-1.247 1.247-2.427 2.426 1.246-1.246 2.428zm6.104-.807h2.729v2.729h-2.729v-2.729zm-11.399 3.479h2.992v2.992h-2.992v-2.992z"/><path fill="#201600" d="M55.412 23.787a4.766 4.766 0 0 0-2.358-.6c-1.363 0-2.517.459-3.427 1.367a6.587 6.587 0 0 0-.762 1.024c-.397.66-.6 1.455-.6 2.358-.044 1.326.404 2.467 1.333 3.395.347.348.692.615 1.029.797a4.68 4.68 0 0 0 2.196.6h.396c1.28-.045 2.354-.504 3.189-1.365.328-.322.586-.662.765-.996.398-.686.602-1.479.602-2.355.021-1.349-.43-2.499-1.334-3.428a6.204 6.204 0 0 0-1.029-.797zm-.57 4.222c0 .52-.18.965-.533 1.318a1.583 1.583 0 0 1-1.151.479c-.054 0-.108-.002-.171-.008a1.81 1.81 0 0 1-1.319-.533c-.358-.338-.512-.77-.469-1.32 0-.521.179-.965.532-1.322.314-.312.728-.47 1.224-.47h.1c.52 0 .965.183 1.317.533.332.351.492.798.47 1.323zm10.044-.037c-.043.564-.224 1.012-.536 1.326-.312.311-.732.471-1.254.471-.03 0-.062 0-.099-.002-.479 0-.914-.168-1.286-.498-.354-.396-.523-.854-.508-1.338.023-.094.037-.189.037-.283a.6.6 0 0 1 .062-.245c.062-.27.212-.545.438-.812.336-.336.775-.484 1.351-.469l.078.002V23.19l-.166-.002c-1.305 0-2.427.459-3.331 1.363a4.183 4.183 0 0 0-.8 1 5.128 5.128 0 0 0-.563 1.819 1.53 1.53 0 0 0-.032.291v.246c-.022 1.346.435 2.494 1.357 3.424.159.18.323.328.487.447.157.119.329.234.513.352.688.396 1.479.602 2.362.602 1.362 0 2.516-.459 3.417-1.363.178-.15.328-.314.453-.484.123-.166.24-.34.35-.516.396-.686.599-1.488.599-2.393V27.9h-2.924l-.005.072zm6.306-6.745h-2.933v6.946c0 .598.123 1.18.362 1.727.178.486.502.971.968 1.436.352.352.698.617 1.032.797.66.375 1.396.576 2.194.6h.238V29.8h-.103c-.547-.043-.981-.223-1.293-.531a1.682 1.682 0 0 1-.47-1.096v-2.148h1.864v-2.93h-1.864v-1.867l.005-.001zm9.446 2.56a4.772 4.772 0 0 0-2.359-.6c-1.365 0-2.518.459-3.428 1.367a6.572 6.572 0 0 0-.759 1.024c-.397.662-.602 1.457-.602 2.36-.043 1.324.405 2.465 1.332 3.393.348.35.693.617 1.028.797.663.375 1.4.576 2.197.6h.396c1.279-.045 2.354-.504 3.189-1.365.333-.33.59-.666.767-.996.396-.686.599-1.479.599-2.355.021-1.346-.424-2.499-1.332-3.428a6.24 6.24 0 0 0-1.028-.797zm-.568 4.222c0 .518-.18.963-.531 1.318a1.598 1.598 0 0 1-1.324.471 1.82 1.82 0 0 1-1.321-.533c-.357-.338-.511-.771-.469-1.32 0-.52.181-.965.532-1.322.32-.316.722-.47 1.227-.47h.099c.521 0 .965.183 1.318.533.329.351.486.798.469 1.323zm11.707-3.456c-.902-.906-2.023-1.365-3.328-1.365l-.093.002c-.881 0-1.676.199-2.358.596a3.568 3.568 0 0 0-1 .802c-.928.928-1.385 2.08-1.361 3.423v6.941h2.933v-2.547a4.54 4.54 0 0 0 1.703.328l.149-.002c.902 0 1.699-.203 2.357-.6a4.455 4.455 0 0 0 1.029-.799c.905-.885 1.365-2.023 1.365-3.393 0-.88-.201-1.685-.604-2.397a8.91 8.91 0 0 0-.792-.989zm-1.567 3.394c.021.549-.135.982-.471 1.32-.312.311-.756.49-1.324.531-.539.049-.981-.123-1.317-.504-.312-.289-.491-.727-.53-1.287-.022-.572.132-1.015.466-1.355.336-.332.781-.5 1.328-.5l.09-.002c.479 0 .894.158 1.226.471.354.358.532.802.532 1.326zm10.461-4.16a4.766 4.766 0 0 0-2.358-.6c-1.363 0-2.517.459-3.427 1.367a6.714 6.714 0 0 0-.762 1.024c-.397.664-.6 1.46-.6 2.358-.043 1.326.403 2.465 1.332 3.395a4.5 4.5 0 0 0 1.028.797 4.702 4.702 0 0 0 2.195.6h.399c1.278-.045 2.354-.504 3.189-1.365.328-.328.588-.664.766-.996.396-.686.599-1.479.599-2.355.022-1.346-.425-2.499-1.332-3.428a6.29 6.29 0 0 0-1.029-.797zm-.57 4.222c0 .52-.181.967-.533 1.318a1.581 1.581 0 0 1-1.15.479c-.053 0-.107-.002-.17-.008-.521 0-.965-.182-1.32-.533-.358-.336-.514-.77-.471-1.32 0-.529.176-.959.535-1.322.313-.312.726-.47 1.224-.47h.099c.521 0 .968.183 1.319.533.33.351.488.798.467 1.323zm9.922-7.041v2.545a4.546 4.546 0 0 0-1.855-.322c-.9 0-1.707.199-2.396.601-.161.104-.33.215-.515.348a4.533 4.533 0 0 0-.48.416c-.796.797-1.242 1.748-1.328 2.818a1.628 1.628 0 0 0-.033.31v.295c0 .902.201 1.709.6 2.393.104.17.217.338.349.518.121.166.272.33.446.479.908.906 2.06 1.365 3.425 1.365.858 0 1.652-.201 2.359-.6.181-.111.354-.23.514-.35.166-.121.331-.271.481-.447.928-.928 1.387-2.08 1.365-3.424V20.97l-2.932-.002zm-.467 8.295a1.943 1.943 0 0 1-1.33.504c-.548.043-.978-.111-1.314-.469-.354-.355-.533-.799-.535-1.336a.863.863 0 0 1-.016-.271 4.32 4.32 0 0 1 .049-.286c.062-.268.209-.521.438-.75.312-.312.762-.491 1.324-.532a1.733 1.733 0 0 1 1.316.465c.229.27.391.547.475.817.017.073.035.159.047.239s.019.17.019.27c.011.525-.147.978-.473 1.349z"/><path fill="#8594F8" d="M68.259 17.246h2.995v2.995h-2.995v-2.995z"/><g><path fill="#8594F8" d="M102.093 45.353a1.568 1.568 0 0 0-.075-.133 1.04 1.04 0 0 1-.411.41c-.576.301-1.162-.161-1.433-.679-.267-.509-.548-1.354.15-1.718.158-.083.344-.124.514-.114-.127-.3-.291-.646-.455-.961-.059-.112-.115-.221-.172-.316.129-.04.232-.07.387-.071l1.761 3.5-.266.082zm-1.018-1.813a.507.507 0 0 0-.528-.023c-.49.257-.188.988.01 1.366.182.347.458.712.895.483.202-.105.396-.282.378-.416l-.755-1.41zm1.137-1.31c.604-.315 1.28.178 1.575.741.252.482.432 1.289-.162 1.655-.596.22-1.117-.075-1.402-.62-.209-.399-.569-1.485-.011-1.776zm.364 1.673c.167.319.585.536.841.402.383-.2.206-.944.046-1.25-.238-.456-.673-.772-1.104-.61-.322.22.074 1.182.217 1.458zm2.454-.195a.362.362 0 0 1-.139.119.826.826 0 0 1-.17.061c-.333-.716-.835-1.599-1.146-2.326l.221-.058.145.239a.843.843 0 0 1 .405-.526c.56-.293.786-.154 1.88 1.885-.022.022-.059.041-.095.061a.719.719 0 0 1-.27.087 1.165 1.165 0 0 1-.141-.224c-.094-.18-.209-.435-.337-.678-.256-.491-.581-.97-.938-.787-.297.155-.31.23-.345.415l.93 1.732zm.149-3.264c.169-.181.232-.322.159-.462-.017-.032-.044-.063-.071-.096-.029.021-.054.041-.081.055-.126.066-.3-.132-.354-.234-.062-.121-.054-.247.045-.299.249-.13.561.171.674.388.137.262.083.564-.296.786l-.076-.138zm2.383-.496c-.232.146-.451.333-.685.479.432.594.693 1.645 1.319 1.317.099-.052.193-.125.299-.23.073.053.124.095.243.17a2.398 2.398 0 0 1-.637.493c-.459.24-.87-.416-1.191-1.029-.115-.22-.22-.429-.307-.596-.076.051-.312.17-.391.216-.079-.119-.138-.198-.191-.29a.35.35 0 0 0 .104-.042c.08-.042.164-.103.253-.149.032-.017.065-.029.088-.041-.119-.248-.264-.55-.373-.803l.221-.058c.133.229.264.48.393.718.239-.103.467-.228.706-.328l.149.173zm2.936-1.266c-.182.137-.416.26-.595.398.266.508.591 1.13.884 1.625.024.137-.02.228-.087.264-.076.039-.188.012-.265-.08-.17-.324-.516-1.062-.817-1.638l-.344.164c-.027-.043-.051-.089-.159-.296.097-.033.256-.101.354-.133-.059-.147-.13-.281-.196-.409-.312-.599-.427-.883.028-1.121.198-.104.453-.173.619-.163l.056.172c-.129.062-.262.113-.369.17-.212.11-.334.25-.167.57.066.126.106.19.139.253.045.086.085.163.181.357.135-.07.266-.126.384-.188.075-.04.143-.079.209-.127l.145.182zm.536-1.064c.604-.315 1.28.178 1.575.741.252.482.433 1.288-.162 1.655-.596.22-1.116-.076-1.401-.62-.209-.4-.57-1.485-.012-1.776zm.365 1.673c.167.319.585.536.842.401.382-.199.206-.944.046-1.25-.238-.455-.673-.771-1.104-.61-.322.221.072 1.184.216 1.459zm2.521-2.355c-.167-.148-.313-.152-.439-.087-.208.108-.316.339-.427.567-.003.006.791 1.525.852 1.584.021.116-.02.184-.082.216-.104.055-.269.013-.359-.095-.31-.691-.682-1.512-.967-2.21l.222-.06.166.285c.074-.176.202-.427.396-.528.293-.152.641-.167.796.13.016.031.035.067.045.107l-.203.091zm1.594-1.632c.031.06.068.13.113.205.176.314.437.769.685 1.242.105.202.229.419.342.635.367.702.626 1.428-.152 1.834-.225.118-.472.207-.711.297-.058-.089-.098-.12-.128-.179-.014-.027-.033-.063-.04-.11.231-.093.47-.166.663-.267.355-.187.544-.474.173-1.203a1.03 1.03 0 0 1-.387.356c-.685.357-1.198-.286-1.499-.862-.302-.576-.345-1.241.264-1.559.152-.08.343-.122.57-.104a2.458 2.458 0 0 0-.066-.137l.173-.148zm.007.594c-.1-.091-.355-.032-.557.073-.335.175-.316.623-.114 1.012.179.341.62 1.046 1.116.786a.51.51 0 0 0 .282-.445l-.727-1.426zm3.295.329c-.186.214-.75.702-1.013.839-.536.28-1.082-.425-1.308-.857-.335-.64-.313-1.236.42-1.619.298-.155.709-.105.885.231.284.545-.613 1.054-.983 1.356.204.358.48.753.939.513.36-.188.861-.6.919-.634l.141.171zm-1.335-1.205c-.133-.153-.233-.228-.382-.149-.351.184-.548.63-.407 1.02.221-.213.6-.618.789-.871zm1.874-1.238c-.234.146-.451.333-.686.479.433.594.694 1.645 1.32 1.317.099-.052.193-.125.298-.23.073.054.124.096.244.17a2.377 2.377 0 0 1-.637.493c-.459.24-.872-.415-1.192-1.028-.115-.221-.219-.43-.306-.597-.076.051-.312.17-.392.216-.08-.118-.138-.197-.19-.29a.344.344 0 0 0 .104-.042c.081-.042.163-.102.254-.149.032-.017.064-.029.088-.041-.119-.248-.264-.55-.374-.802l.222-.059c.132.229.264.48.393.718.239-.102.467-.228.705-.328l.149.173zm2.897-1.513c-.233.145-.451.332-.685.478.431.595.693 1.645 1.318 1.317.1-.052.194-.124.299-.23.073.054.125.096.243.171a2.366 2.366 0 0 1-.637.493c-.459.239-.87-.416-1.19-1.029-.115-.221-.22-.43-.307-.596-.076.051-.312.169-.391.215-.08-.119-.138-.197-.192-.289.037-.007.067-.023.104-.042.081-.042.164-.104.254-.15.031-.017.065-.029.087-.041-.117-.248-.264-.549-.372-.802l.222-.059c.131.229.263.481.393.718.238-.102.466-.227.704-.328l.15.174zm.715-.89c.603-.315 1.28.179 1.574.741.252.482.433 1.289-.161 1.655-.597.22-1.116-.075-1.401-.62-.209-.4-.571-1.484-.012-1.776zm.364 1.673c.167.319.584.536.84.402.384-.2.206-.944.046-1.25-.237-.455-.673-.771-1.104-.61-.32.22.075 1.183.218 1.458zm3.701-3.3c-.247.021-.525.051-.754.17-.262.137-.356.251-.206.538.317.608 1.374-.224 1.77.532.185.355.085.854-.372 1.1a1.165 1.165 0 0 1-.971.054l.056-.2c.307-.028.439.004.713-.139.271-.142.405-.366.286-.596-.283-.541-1.28.314-1.74-.564-.171-.328-.142-.71.224-.9.288-.15.688-.166.947-.193l.047.198zm1.649-.844c-.232.145-.451.332-.684.477.431.595.693 1.646 1.318 1.318.1-.052.193-.124.299-.23.073.054.124.095.243.17a2.362 2.362 0 0 1-.637.493c-.459.24-.87-.416-1.19-1.029-.115-.22-.219-.43-.306-.596-.078.052-.313.17-.393.216-.079-.119-.138-.197-.191-.289a.382.382 0 0 0 .104-.043c.081-.041.164-.103.253-.149.032-.017.066-.029.088-.041-.117-.249-.264-.55-.372-.802l.222-.059c.131.229.263.48.392.717.239-.102.467-.227.705-.327l.149.174zm.361-.437c.073-.232.275-.459.506-.578.652-.341 1.132.354 1.414.895.181.348.323.709.502 1.051.025.112-.007.183-.065.213-.1.052-.278-.017-.347-.146-.008-.015-.017-.031-.019-.047-.082.248-.239.463-.441.568a.657.657 0 0 1-.881-.28c-.284-.544-.058-1.327.483-1.61.036-.018.073-.033.116-.049-.147-.24-.363-.465-.674-.303-.153.08-.284.247-.392.469l-.202-.183zm1.607.605c-.065-.125-.136-.248-.201-.363l-.037.019c-.394.212-.646.769-.411 1.219.101.193.299.233.452.153.188-.099.332-.364.434-.555-.076-.152-.155-.314-.237-.473zm1.615-1.731c-.168-.146-.313-.151-.44-.085-.207.108-.316.337-.426.566-.003.007.791 1.525.852 1.584.02.115-.02.184-.082.216-.104.055-.27.013-.359-.095-.311-.691-.682-1.512-.967-2.21l.221-.06.167.286c.074-.176.201-.426.396-.527.292-.154.64-.169.795.128a.444.444 0 0 1 .045.108l-.202.089zm-20.759 17.415c-.234.146-.451.332-.686.478.431.595.692 1.644 1.319 1.316.1-.052.193-.123.298-.229.074.053.125.095.245.169a2.401 2.401 0 0 1-.637.494c-.461.24-.872-.416-1.192-1.029-.115-.22-.219-.43-.306-.596-.076.051-.313.17-.392.216-.08-.119-.138-.198-.192-.29a.355.355 0 0 0 .104-.042c.082-.042.164-.104.254-.151.031-.016.065-.027.089-.04-.119-.248-.266-.549-.374-.802l.222-.059c.131.229.263.481.393.718.239-.102.466-.227.705-.328l.15.175zm.026-1.516c.196.321.429.777.622 1.103a.87.87 0 0 1 .436-.549c.379-.198.887-.103 1.144.389l.755 1.445a.439.439 0 0 1-.134.104.886.886 0 0 1-.186.073c-.038-.072-.07-.146-.107-.218-.201-.384-.431-.757-.703-1.279-.205-.271-.434-.289-.617-.193a.736.736 0 0 0-.366.54c.303.514.593 1.113.89 1.624-.051.037-.108.079-.172.112a.656.656 0 0 1-.197.069c-.105-.221-.226-.451-.348-.685-.416-.797-.9-1.657-1.274-2.472l.257-.063zm5.018 1.039c-.187.214-.751.702-1.012.839-.536.28-1.083-.426-1.309-.857-.334-.641-.313-1.235.421-1.619.297-.155.707-.104.883.231.285.545-.611 1.054-.981 1.356.204.357.479.753.939.513.359-.188.861-.6.918-.635l.141.172zm-1.335-1.205c-.132-.154-.233-.228-.382-.149-.352.184-.548.631-.407 1.02.222-.212.6-.618.789-.871zm2.008-1.736c.023.045.047.09.074.132.114-.197.258-.329.41-.409.577-.301 1.163.161 1.434.679.266.509.547 1.354-.151 1.718a1.025 1.025 0 0 1-.514.114c.207.374.415.753.629 1.129.021.113-.019.181-.082.214-.104.054-.268.014-.358-.094l-1.709-3.4.267-.083zm1.017 1.813a.512.512 0 0 0 .527.022c.49-.257.188-.987-.009-1.365-.183-.348-.459-.713-.896-.484-.202.105-.396.282-.378.416l.756 1.411zm2.242-2.778c-.168-.146-.313-.151-.44-.085-.206.107-.315.338-.425.566-.003.006.791 1.525.852 1.584.02.116-.02.184-.084.217-.103.054-.268.012-.357-.095-.311-.692-.682-1.513-.967-2.211l.221-.06.166.285c.075-.176.201-.426.396-.527.292-.153.64-.168.795.129a.407.407 0 0 1 .044.108l-.201.089zm.763-1.223c.604-.316 1.28.179 1.574.741.252.482.433 1.287-.16 1.654-.597.221-1.117-.074-1.402-.619-.209-.401-.57-1.484-.012-1.776zm.365 1.672c.167.318.584.536.842.402.382-.2.206-.945.046-1.251-.238-.455-.673-.771-1.104-.61-.322.22.072 1.184.216 1.459zm1.095-2.923c.063.121.049.248-.059.305-.171.09-.355-.032-.441-.198-.064-.122-.055-.247.045-.299.166-.088.368.025.455.192zm.858 3.857c.49-.412.19-1.062-.09-1.599-.19-.365-.391-.725-.785-1.471-.057-.142-.025-.233.042-.269.086-.044.228-.005.312.135.128.244.262.488.403.759.023.046.072.129.136.25.873 1.671.745 2.042.273 2.288a.622.622 0 0 1-.207.067l-.084-.16zm2.62-2.512c-.186.214-.751.703-1.012.839-.536.28-1.083-.425-1.309-.857-.335-.64-.312-1.235.421-1.619.297-.155.708-.105.884.231.285.545-.613 1.055-.983 1.356.204.358.479.753.94.513.359-.188.861-.6.918-.634l.141.171zm-1.336-1.205c-.132-.153-.232-.228-.382-.149-.351.184-.548.631-.406 1.021.221-.214.599-.619.788-.872zm2.057-1.406a2.477 2.477 0 0 0-.33.138c-.644.337-.524 1.06-.237 1.609.171.328.424.656.834.441.135-.07.282-.184.45-.333a.453.453 0 0 1 .13-.113c.072-.038.136-.002.255.182a2.744 2.744 0 0 1-.652.495c-.671.351-.996.09-1.339-.567-.396-.756-.543-1.476.263-1.896.189-.1.395-.167.55-.155l.076.199zm1.577-.75c-.233.146-.451.333-.685.479.432.594.693 1.643 1.318 1.315.1-.052.194-.123.3-.229.073.054.123.097.243.171a2.398 2.398 0 0 1-.637.493c-.459.24-.87-.416-1.191-1.029-.114-.221-.219-.429-.306-.596-.077.051-.312.169-.393.216-.079-.119-.138-.197-.19-.29a.344.344 0 0 0 .104-.042c.08-.042.162-.104.253-.15.031-.017.066-.029.088-.04-.118-.248-.264-.55-.374-.802l.222-.059c.133.229.265.48.393.718.24-.103.468-.228.706-.329l.149.174z"/></g></svg>