<svg enable-background="new -4.029 0.071 127.559 53.858" height="53.858" viewBox="-4.029 .071 127.559 53.858" width="127.559" xmlns="http://www.w3.org/2000/svg"><path d="m-4.03.071h127.559v53.858h-127.559z" fill="#fff"/><g fill="#8594f8"><path d="m17.184 22.049c.257-.063.487-.224.624-.474.062-.113.096-.232.11-.354l1.659-.771 1.239-2.479-3.467 2.25c-.463-.209-1.015-.041-1.263.412-.198.363-.14.794.109 1.095l-.213 1.025-.219 1.618-1.121 1.104.624 1.172.31.076-.352-1.188.858-.447.85.49-.289 1.174.323-.062.562-1.145-1-.965.435-1.483zm-.455-.555c-.205-.111-.28-.37-.168-.575.111-.206.368-.28.574-.169.206.114.28.371.169.577-.112.205-.369.281-.575.167z"/><path d="m32.373 23.294-.447-1.879-.394-1.177c.002-.003.004-.004.005-.006.305-.557.1-1.254-.456-1.559-.36-.198-.771-.163-1.104.024l-2.715-1.247h.908v-1.383h.003s0-1.656 0-2.174c0-2.001-1.441-3.656-3.34-4.005v-.519c0-.142-.114-.257-.256-.257h-.203v-1.684l.432-.431c.083-.083.083-.218 0-.3l-.563-.564c-.082-.083-.217-.083-.301 0l-.562.564c-.085.082-.085.217 0 .3l.43.431v1.687h-.201c-.143 0-.258.115-.258.257v.52c-1.897.35-3.338 2.005-3.338 4.004v2.15h-.001v1.406h1.677l-.566.969-1.51 3.115c-.436.058-.841.311-1.066.727-.378.691-.124 1.56.567 1.937.032.018.065.027.099.041l.486 1.6.355.811-1.863.316-.493 1.832.325.34.852-1.684 1.84.168 1.15 1.412-.912 1.783.513.023 1.24-1.576-1.415-2.809-.172-.957-.436-1.436c.146-.115.271-.26.366-.434.231-.423.224-.91.026-1.313l1.899-2.698.706-1.206.617 1.283 2.123 3.862c-.326.525-.303 1.215.135 1.695.116.129.255.219.399.295l.007 1.5.206 1.877-1.958 1.455.393 1.855.442.154v-1.893l1.713-.678 1.66.678v2.061l.469-.211.39-1.967-2.03-1.49.174-1.748-.008-1.695c.052-.035.111-.051.159-.094.583-.529.627-1.432.099-2.016-.203-.224-.467-.342-.741-.405l-1.214-3.117-1.614-1.464 1.442.504 2.86.89c.022.382.215.746.575.942.091.05.188.065.283.089l.341 1.018.763 1.782-1.283 1.168.804 1.455.418.088-.435-1.48 1.183-.59 1.132.59-.434 1.48.443-.088.801-1.453zm-12.056-.097c-.164.299-.537.409-.836.245-.299-.163-.409-.538-.246-.837.164-.298.538-.408.837-.244s.408.538.245.836zm6.899.612c.252-.229.642-.211.87.043.229.25.21.639-.043.869-.253.229-.642.209-.87-.043-.227-.252-.209-.643.043-.869zm-3.372-6.335-.038-.022h.086zm.248-1.691c-1.048 0-1.896-.849-1.896-1.896s.849-1.896 1.896-1.896 1.896.849 1.896 1.896-.849 1.896-1.896 1.896zm6.885 4.161c-.132.243-.433.33-.672.198-.243-.131-.33-.433-.198-.673.131-.24.432-.329.674-.198.24.133.326.433.196.673z"/><path d="m24.802 13.997c-.345 0-.626-.281-.626-.627 0-.199.095-.374.239-.489-.113-.037-.231-.062-.358-.062-.636 0-1.151.516-1.151 1.151s.516 1.151 1.151 1.151 1.152-.516 1.152-1.151c0-.04-.008-.078-.012-.117-.106.088-.243.144-.395.144z"/><path d="m10.575 34.135h2.993v2.992h-2.993z"/><path d="m35.583 34.135h2.993v2.992h-2.993z"/><path d="m31.296 34.135h2.993v2.992h-2.993z"/><path d="m39.812 34.135h2.995v2.992h-2.995z"/><path d="m35.583 30.029h2.993v2.994h-2.993z"/><path d="m39.812 30.029h2.995v2.994h-2.995z"/><path d="m39.812 25.928h2.995v2.994h-2.995z"/><path d="m22.574 34.135h2.993v2.992h-2.993z"/><path d="m18.287 28.261h2.728v2.729h-2.728z" transform="matrix(-.8895 -.4569 .4569 -.8895 23.5969 64.9572)"/><path d="m26.348 30.656h2.729v2.729h-2.729z"/><path d="m14.948 34.135h2.993v2.992h-2.993z"/></g><path d="m51.382 28.279c-.709-.398-1.502-.6-2.358-.6-1.364 0-2.517.459-3.427 1.367-.326.369-.583.715-.762 1.025-.397.66-.599 1.455-.599 2.357-.044 1.326.404 2.467 1.333 3.395.346.348.692.615 1.029.797.661.375 1.398.576 2.196.6h.394.002c1.28-.045 2.353-.504 3.189-1.365.328-.324.586-.662.765-.996.398-.686.601-1.479.601-2.357.021-1.348-.429-2.498-1.334-3.428-.349-.326-.694-.594-1.029-.795zm-.57 4.221c0 .52-.18.965-.533 1.32-.316.314-.704.477-1.152.477-.054 0-.108-.002-.171-.008-.521 0-.966-.18-1.319-.533-.358-.338-.512-.768-.469-1.32 0-.521.179-.965.532-1.322.315-.311.728-.469 1.224-.469h.1c.519 0 .965.182 1.317.533.333.351.492.797.471 1.322z" fill="#201600"/><path d="m60.856 32.463c-.043.566-.224 1.012-.536 1.326-.312.312-.733.471-1.254.471-.031 0-.063 0-.099-.002-.479 0-.914-.168-1.286-.498-.354-.396-.524-.854-.508-1.338.024-.094.037-.188.037-.283 0-.074.02-.15.063-.244.062-.27.212-.545.438-.812.336-.336.776-.484 1.351-.469l.078.002v-2.934l-.166-.002c-1.305 0-2.427.459-3.331 1.363-.332.311-.601.645-.8 1-.309.596-.499 1.211-.563 1.82-.023.109-.033.211-.033.291v.246c-.022 1.344.435 2.494 1.358 3.422.159.18.323.33.487.449.157.119.329.234.513.35.687.398 1.479.602 2.362.602 1.362 0 2.516-.459 3.417-1.363.178-.15.328-.314.453-.484.123-.166.24-.34.35-.516.396-.686.598-1.488.598-2.393v-.076h-2.923z" fill="#201600"/><path d="m67.161 25.719h-2.932v6.945c0 .598.123 1.18.362 1.727.178.486.502.971.968 1.436.351.352.698.617 1.032.797.66.375 1.397.576 2.194.6h.239v-2.932h-.104c-.547-.043-.981-.223-1.293-.531-.295-.318-.449-.678-.47-1.096v-2.148h1.865v-2.93h-1.865v-1.867h.004z" fill="#201600"/><path d="m76.608 28.279c-.71-.398-1.503-.6-2.36-.6-1.365 0-2.517.459-3.427 1.367-.328.371-.583.719-.759 1.025-.398.662-.602 1.457-.602 2.359-.043 1.324.405 2.465 1.332 3.393.348.35.694.617 1.029.797.663.375 1.4.576 2.197.6h.393.002c1.28-.045 2.354-.504 3.19-1.365.333-.33.59-.666.766-.996.397-.686.599-1.479.599-2.357.021-1.346-.424-2.498-1.332-3.428-.35-.326-.694-.594-1.028-.795zm-.569 4.221c0 .518-.179.963-.531 1.32-.319.314-.707.477-1.153.477-.054 0-.108-.002-.171-.008-.522 0-.965-.18-1.321-.533-.358-.338-.511-.77-.469-1.32 0-.52.18-.965.532-1.322.32-.316.722-.469 1.227-.469h.098c.521 0 .965.182 1.319.533.33.351.487.797.469 1.322z" fill="#201600"/><path d="m87.746 29.045c-.902-.906-2.023-1.365-3.328-1.365l-.093.002c-.88 0-1.675.199-2.358.596-.379.203-.715.475-1 .801-.928.928-1.385 2.08-1.361 3.424v6.941h2.932v-2.547c.539.217 1.113.328 1.703.328.053 0 .104-.002.15-.002.902 0 1.699-.203 2.357-.6.336-.182.684-.447 1.03-.799.905-.883 1.365-2.023 1.365-3.391 0-.881-.201-1.686-.604-2.398-.242-.353-.509-.683-.793-.99zm-1.566 3.393c.021.549-.135.982-.471 1.32-.311.311-.756.49-1.324.531-.539.049-.981-.123-1.317-.504-.312-.289-.492-.725-.531-1.287-.022-.572.132-1.014.466-1.354.336-.332.781-.5 1.328-.5.028 0 .059-.002.09-.002.479 0 .894.158 1.226.471.355.358.533.801.533 1.325z" fill="#201600"/><path d="m96.641 28.279c-.709-.398-1.502-.6-2.359-.6-1.363 0-2.516.459-3.426 1.367-.326.371-.584.717-.762 1.025-.397.664-.6 1.459-.6 2.357-.043 1.326.404 2.465 1.332 3.395.344.346.689.613 1.029.797.664.375 1.402.576 2.195.6h.396.002c1.279-.045 2.354-.504 3.19-1.365.328-.328.588-.664.766-.996.396-.686.598-1.479.598-2.357.023-1.346-.425-2.498-1.332-3.428-.352-.328-.697-.595-1.029-.795zm-.57 4.221c0 .521-.181.967-.534 1.32-.316.314-.701.477-1.15.477-.053 0-.107-.002-.17-.008-.521 0-.965-.18-1.32-.533-.359-.336-.514-.768-.471-1.32 0-.529.176-.959.535-1.322.314-.311.726-.469 1.224-.469h.098c.522 0 .968.182 1.32.533.331.351.489.797.468 1.322z" fill="#201600"/><path d="m105.992 25.459v2.545c-.541-.217-1.113-.326-1.701-.326-.052 0-.104.002-.154.004-.9 0-1.707.199-2.396.6-.161.104-.33.215-.514.348-.161.119-.318.256-.481.416-.796.797-1.242 1.748-1.328 2.818-.021.107-.033.213-.033.311v.295c0 .902.201 1.709.6 2.393.104.168.216.336.348.516.121.166.273.33.447.48.908.906 2.059 1.365 3.424 1.365.859 0 1.653-.201 2.36-.6.18-.111.353-.23.513-.35.166-.121.331-.271.482-.447.928-.928 1.387-2.08 1.365-3.424v-6.943h-2.932zm-.466 8.295c-.378.336-.825.504-1.33.504-.548.043-.978-.111-1.315-.469-.354-.355-.533-.799-.535-1.336-.021-.104-.025-.191-.016-.271.012-.084.028-.182.049-.285.062-.268.209-.521.438-.75.312-.312.761-.492 1.324-.533.029-.002.062-.004.091-.004.481 0 .896.16 1.224.469.229.27.391.547.475.818.017.072.035.158.047.238s.018.17.018.27c.014.525-.144.978-.47 1.349z" fill="#201600"/><path d="m64.229 21.738h2.995v2.995h-2.995z" fill="#8594f8"/></svg>