<svg enable-background="new 0 0 117 54" height="54" viewBox="0 0 117 54" width="117" xmlns="http://www.w3.org/2000/svg"><g fill="#8594f8"><path d="m16.031 23.149c.257-.063.487-.224.624-.474.062-.113.096-.232.11-.354l1.659-.771 1.239-2.479-3.467 2.25c-.463-.209-1.015-.041-1.263.412-.198.363-.14.794.109 1.095l-.213 1.025-.219 1.618-1.121 1.104.624 1.172.31.076-.352-1.188.858-.446.85.489-.289 1.173.323-.062.562-1.144-1-.965.435-1.483zm-.455-.555c-.205-.111-.28-.37-.168-.575.111-.206.368-.28.574-.169.206.114.28.371.169.577-.112.205-.369.281-.575.167z"/><path d="m31.22 24.394-.447-1.879-.394-1.177c.002-.003.004-.004.005-.006.305-.557.1-1.254-.456-1.559-.36-.198-.771-.163-1.104.024l-2.715-1.247h.908v-1.383h.003s0-1.656 0-2.174c0-2.001-1.441-3.656-3.34-4.005v-.519c0-.142-.114-.257-.256-.257h-.203v-1.684l.432-.431c.083-.083.083-.218 0-.3l-.563-.564c-.082-.083-.217-.083-.301 0l-.562.564c-.085.082-.085.217 0 .3l.43.431v1.687h-.201c-.143 0-.258.115-.258.257v.52c-1.897.35-3.338 2.005-3.338 4.004v2.15h-.001v1.406h1.677l-.566.969-1.51 3.115c-.436.058-.841.311-1.066.727-.378.691-.124 1.56.567 1.936.032.018.065.027.099.042l.486 1.6.355.809-1.863.317-.493 1.832.325.339.852-1.684 1.84.169 1.15 1.412-.912 1.783.513.023 1.24-1.575-1.415-2.809-.172-.957-.436-1.435c.146-.115.271-.261.366-.435.231-.422.224-.909.026-1.312l1.899-2.698.706-1.206.617 1.283 2.123 3.861c-.326.526-.303 1.216.135 1.697.116.128.255.218.399.294l.007 1.499.206 1.877-1.958 1.456.393 1.856.442.154v-1.894l1.713-.676 1.66.676v2.062l.469-.211.39-1.968-2.03-1.489.174-1.749-.008-1.694c.052-.035.111-.052.159-.095.583-.528.627-1.431.099-2.015-.203-.224-.467-.343-.741-.406l-1.214-3.117-1.614-1.464 1.442.504 2.86.89c.022.382.215.746.575.942.091.05.188.065.283.089l.341 1.018.763 1.783-1.283 1.167.804 1.455.418.089-.435-1.482 1.183-.589 1.132.589-.434 1.482.443-.088.801-1.455zm-12.056-.097c-.164.299-.537.408-.836.245s-.409-.538-.246-.837c.164-.298.538-.408.837-.244s.408.538.245.836zm6.899.611c.252-.229.642-.211.87.043.229.251.21.64-.043.87-.253.229-.642.209-.87-.044-.227-.251-.209-.642.043-.869zm-3.372-6.334-.038-.022h.086zm.248-1.691c-1.048 0-1.896-.849-1.896-1.896s.849-1.896 1.896-1.896 1.896.849 1.896 1.896-.849 1.896-1.896 1.896zm6.885 4.161c-.132.243-.433.33-.672.198-.243-.131-.33-.433-.198-.673.131-.24.432-.329.674-.198.24.133.326.433.196.673z"/><path d="m23.649 15.097c-.345 0-.626-.281-.626-.627 0-.199.095-.374.239-.489-.113-.037-.231-.062-.358-.062-.636 0-1.151.516-1.151 1.151s.516 1.151 1.151 1.151 1.152-.516 1.152-1.151c0-.04-.008-.078-.012-.117-.106.088-.243.144-.395.144z"/><path d="m9.422 35.234h2.993v2.993h-2.993z"/><path d="m34.43 35.234h2.993v2.993h-2.993z"/><path d="m30.143 35.234h2.993v2.993h-2.993z"/><path d="m38.659 35.234h2.995v2.993h-2.995z"/><path d="m34.43 31.13h2.993v2.994h-2.993z"/><path d="m38.659 31.13h2.995v2.994h-2.995z"/><path d="m38.659 27.028h2.995v2.994h-2.995z"/><path d="m21.421 35.234h2.993v2.993h-2.993z"/><path d="m17.136 29.362h2.728v2.729h-2.728z" transform="matrix(.8894 .4571 -.4571 .8894 16.0895 -5.0584)"/><path d="m25.195 31.756h2.729v2.729h-2.729z"/><path d="m13.795 35.234h2.993v2.993h-2.993z"/></g><path d="m50.229 29.379c-.709-.398-1.502-.599-2.358-.599-1.364 0-2.517.458-3.427 1.366-.326.369-.583.716-.762 1.026-.397.66-.599 1.455-.599 2.358-.044 1.325.404 2.466 1.333 3.394.346.347.692.615 1.029.797.661.375 1.398.576 2.196.6h.394.002c1.28-.045 2.353-.505 3.189-1.366.328-.324.586-.661.765-.996.398-.686.601-1.479.601-2.358.021-1.347-.429-2.498-1.334-3.427-.349-.326-.694-.593-1.029-.795zm-.57 4.221c0 .52-.18.965-.533 1.321-.316.314-.704.475-1.152.475-.054 0-.108-.002-.171-.007-.521 0-.966-.18-1.319-.533-.358-.338-.512-.768-.469-1.321 0-.521.179-.964.532-1.321.315-.312.728-.47 1.224-.47.031 0 .063.001.1.001.519 0 .965.181 1.317.533.333.352.492.796.471 1.322z" fill="#201600"/><path d="m59.704 33.562c-.043.567-.224 1.013-.536 1.326s-.734.471-1.255.471c-.031 0-.063 0-.098-.001-.479 0-.914-.169-1.286-.499-.354-.396-.524-.852-.508-1.337.024-.094.037-.188.037-.283 0-.075.02-.151.063-.244.062-.271.212-.546.438-.813.336-.336.776-.484 1.351-.469l.078.002v-2.934l-.166-.001c-1.305 0-2.427.459-3.331 1.362-.332.312-.601.646-.8 1.001-.309.596-.499 1.21-.563 1.82-.023.109-.033.212-.033.292v.246c-.022 1.343.435 2.494 1.358 3.421.159.18.323.331.487.45.157.118.329.234.513.349.687.398 1.479.601 2.362.601 1.363 0 2.516-.459 3.418-1.362.177-.152.328-.315.452-.485.124-.167.241-.34.35-.515.396-.686.598-1.49.598-2.393v-.076h-2.923z" fill="#201600"/><path d="m66.009 26.82h-2.932v6.943c0 .599.123 1.181.363 1.727.177.486.502.971.967 1.436.351.351.698.618 1.032.797.661.375 1.398.576 2.195.6h.239v-2.933h-.103c-.548-.042-.982-.221-1.293-.53-.296-.319-.45-.678-.47-1.096v-2.148h1.865v-2.931h-1.865v-1.865z" fill="#201600"/><path d="m75.456 29.379c-.71-.398-1.503-.599-2.36-.599-1.365 0-2.517.458-3.427 1.366-.328.372-.583.719-.759 1.026-.398.663-.601 1.457-.601 2.359-.043 1.324.405 2.465 1.332 3.393.348.349.694.617 1.029.797.663.375 1.401.576 2.197.6h.393.002c1.28-.045 2.354-.505 3.19-1.366.333-.33.59-.665.766-.996.397-.686.599-1.479.599-2.358.021-1.345-.425-2.497-1.333-3.427-.35-.326-.694-.593-1.028-.795zm-.569 4.221c0 .518-.179.963-.532 1.321-.319.314-.706.475-1.153.475-.054 0-.109-.002-.171-.007-.522 0-.965-.18-1.321-.533-.358-.338-.511-.77-.469-1.321 0-.52.18-.964.532-1.321.32-.317.722-.47 1.227-.47.031 0 .062.001.097.001.521 0 .965.181 1.32.533.331.352.488.796.47 1.322z" fill="#201600"/><path d="m86.594 30.144c-.903-.905-2.024-1.364-3.329-1.364l-.092.001c-.88 0-1.675.2-2.359.597-.378.202-.715.473-.999.8-.928.927-1.386 2.08-1.362 3.423v6.943h2.932v-2.547c.539.217 1.113.327 1.703.327.052 0 .103-.002.151-.002.902 0 1.698-.202 2.357-.599.336-.181.683-.448 1.03-.798.906-.884 1.365-2.024 1.365-3.391 0-.881-.201-1.686-.604-2.399-.242-.353-.509-.684-.793-.991zm-1.567 3.394c.021.549-.134.981-.47 1.319-.311.312-.756.49-1.325.532-.539.048-.981-.123-1.317-.504-.312-.29-.492-.725-.531-1.288-.022-.571.131-1.013.466-1.352.335-.333.781-.501 1.327-.501.029 0 .06-.001.09-.001.48 0 .894.157 1.226.47.356.358.534.801.534 1.325z" fill="#201600"/><path d="m95.488 29.379c-.708-.398-1.501-.599-2.359-.599-1.364 0-2.516.458-3.426 1.366-.326.372-.584.718-.761 1.026-.398.665-.6 1.459-.6 2.358-.043 1.325.404 2.465 1.332 3.394.343.345.689.613 1.029.797.664.375 1.402.576 2.195.6h.396.002c1.279-.045 2.354-.505 3.19-1.366.328-.328.588-.663.766-.996.396-.686.598-1.479.598-2.358.023-1.345-.425-2.497-1.333-3.427-.351-.328-.697-.596-1.029-.795zm-.569 4.221c0 .521-.18.966-.534 1.321-.316.314-.702.475-1.15.475-.053 0-.108-.002-.17-.007-.522 0-.966-.18-1.321-.533-.359-.337-.513-.768-.471-1.321 0-.528.176-.959.535-1.321.315-.312.726-.47 1.224-.47.032 0 .063.001.098.001.522 0 .968.181 1.32.533.332.352.49.797.469 1.322z" fill="#201600"/><path d="m104.84 26.56v2.544c-.541-.217-1.113-.326-1.702-.326-.051 0-.104.002-.154.003-.9 0-1.707.2-2.395.601-.162.102-.33.213-.514.346-.161.12-.318.256-.481.417-.796.796-1.242 1.748-1.329 2.819-.021.107-.033.213-.033.309v.295c0 .903.201 1.71.6 2.394.104.167.216.336.348.514.121.166.273.331.447.481.908.907 2.059 1.366 3.424 1.366.859 0 1.653-.202 2.36-.601.18-.111.353-.229.513-.349.166-.12.331-.271.483-.447.927-.928 1.386-2.08 1.364-3.423v-6.943zm-.466 8.293c-.378.336-.825.505-1.33.505-.548.043-.977-.111-1.315-.47-.354-.354-.533-.798-.535-1.335-.021-.103-.026-.192-.017-.271.013-.084.029-.183.049-.286.062-.268.21-.521.438-.75.313-.312.761-.492 1.324-.533.029-.002.062-.003.091-.003.481 0 .895.16 1.223.468.229.27.391.547.476.818.016.072.035.159.046.239.012.08.018.17.018.27.016.524-.143.978-.468 1.348z" fill="#201600"/><path d="m63.077 22.838h2.995v2.994h-2.995z" fill="#8594f8"/></svg>