<svg enable-background="new 0 0 294.907 62.023" height="62.023" viewBox="0 0 294.907 62.023" width="294.907" xmlns="http://www.w3.org/2000/svg"><path d="m15.886 22.642h7.715v23.163h6.721v-23.163h7.827v-5.46h-22.263z"/><path d="m100.99 19.746c-1.914-1.701-4.551-2.563-7.84-2.563h-11.094v28.623h6.721v-8.689h4.373c3.288 0 5.926-.855 7.838-2.543 1.897-1.673 2.877-3.899 2.916-6.615.001-.056.002-1.356.002-1.413 0-2.793-.982-5.08-2.916-6.8zm-4.803 10.849c-.667.703-1.688 1.06-3.037 1.06h-4.373v-9.013h4.373c1.356 0 2.379.366 3.037 1.088.674.739 1.017 1.699 1.017 2.851 0 .055-.001 1.354-.003 1.407-.031 1.064-.364 1.919-1.014 2.607z"/><path d="m124.167 33.762h12.028v-5.46h-12.028v-5.66h13.909v-5.46h-20.629v28.623h20.667v-5.442h-13.947z"/><path d="m159.432 17.182-10.896 28.623h6.633l2.215-5.908h10.924l2.387 5.908h6.725l-11.48-28.623zm6.638 17.179h-6.543l3.146-8.405z"/><path d="m206.916 30.738c.703-.473 1.281-1.053 1.729-1.729.715-1.089 1.078-2.335 1.078-3.706 0-2.684-1-4.742-2.973-6.119-1.902-1.328-4.559-2.001-7.895-2.001h-9.588v28.623h11.207c3.297 0 5.898-.725 7.732-2.152 1.879-1.463 2.834-3.629 2.834-6.439 0-1.684-.479-3.18-1.422-4.448-.669-.907-1.577-1.588-2.702-2.029zm-4.857-2.856c-.678.516-1.691.777-3.016.777h-3.055v-6.018h2.867c1.436 0 2.512.262 3.195.779.641.484.951 1.24.951 2.314.001.963-.308 1.664-.942 2.148zm-6.071 5.806h4.428c1.35 0 2.354.305 2.984.904.623.592.938 1.473.938 2.621 0 1.061-.303 1.826-.924 2.342-.65.537-1.639.809-2.939.809h-4.486v-6.676z"/><path d="m230.91 17.182h-6.721v28.623h18.989v-5.442h-12.268z"/><path d="m261.578 33.762h12.029v-5.46h-12.029v-5.66h13.91v-5.46h-20.629v28.623h20.666v-5.442h-13.947z"/><path d="m58.742 29.827h.119l5.766-12.645h7.276l-9.821 18.769v10.18h-6.701v-10.479l-9.663-18.47h7.277z" fill="#eaa213"/></svg>